<svg xmlns="http://www.w3.org/2000/svg" viewBox="0 0 26.1 26.1"><defs><style>.cls-1{fill:#e7e3de;}</style></defs><title>Fichier 41</title><g id="Calque_2" data-name="Calque 2"><g id="footer"><path class="cls-1" d="M18.25,0H7.85A7.86,7.86,0,0,0,0,7.85v10.4A7.86,7.86,0,0,0,7.85,26.1h10.4a7.86,7.86,0,0,0,7.85-7.85V7.85A7.86,7.86,0,0,0,18.25,0ZM3,7.85A4.91,4.91,0,0,1,7.85,3h10.4a4.91,4.91,0,0,1,4.9,4.9v10.4a4.91,4.91,0,0,1-4.9,4.9H7.85A4.91,4.91,0,0,1,3,18.25Z"/><path class="cls-1" d="M13.05,6.21a6.84,6.84,0,1,0,6.84,6.84A6.85,6.85,0,0,0,13.05,6.21Zm0,10.73a3.89,3.89,0,1,1,3.89-3.89A3.89,3.89,0,0,1,13.05,16.94Z"/><circle class="cls-1" cx="19.72" cy="6.44" r="1.6"/></g></g></svg>