<svg xmlns="http://www.w3.org/2000/svg" viewBox="0 0 75.25 65"><defs><style>.cls-1{fill:#00945c;}</style></defs><title>Fichier 21</title><g id="Calque_2" data-name="Calque 2"><g id="content"><path class="cls-1" d="M74,38.76A5.48,5.48,0,0,0,66.34,38L61.72,41.9A19.45,19.45,0,0,0,61,38.78a20.78,20.78,0,0,0-2.06-4.37A1.1,1.1,0,1,0,57,35.58a18.71,18.71,0,0,1,1.84,3.89,17.89,17.89,0,0,1,.68,2.78c.07.44.13.89.16,1.33l-3.87,3.25a5.46,5.46,0,0,0-5.32-4.28H39.29a7.35,7.35,0,0,1-4.46-1.47,12.65,12.65,0,0,0-7.7-2.59,12.51,12.51,0,0,0-2.29.21A18.17,18.17,0,0,1,41.71,27.11a17.86,17.86,0,0,1,11.29,4,1.1,1.1,0,0,0,1.38-1.72,20.3,20.3,0,0,0-11.56-4.42V20.64a6.09,6.09,0,0,0,2.18.19A17.49,17.49,0,0,0,62.47,3.36,3.41,3.41,0,0,0,59.17.05,17.35,17.35,0,0,0,42.82,9V1.15a1.11,1.11,0,0,0-2.21,0V9a17.49,17.49,0,0,0-15.27-9C23.27-.14,21,.87,21,3.36a17.56,17.56,0,0,0,1,5.88A1.11,1.11,0,0,0,24,8.49a15.13,15.13,0,0,1-.89-5.13c0-1.1,1.39-1.28,2.19-1.11A15.29,15.29,0,0,1,40.61,17.3c0,1.17-1.16,1.52-2.19,1.33A15.21,15.21,0,0,1,26.56,13,1.11,1.11,0,0,0,25,12.81a1.12,1.12,0,0,0-.16,1.56,17.45,17.45,0,0,0,13.57,6.46,6.14,6.14,0,0,0,2.19-.19v4.29A20.11,20.11,0,0,0,29.44,29a20.49,20.49,0,0,0-7.19,10.44,12.65,12.65,0,0,0-4.43,3.08H13v-2a1.11,1.11,0,0,0-1.1-1.11H1.1A1.11,1.11,0,0,0,0,40.51V63.86A1.1,1.1,0,0,0,1.1,65H11.92a1.1,1.1,0,0,0,1.1-1.1v-2h5.13l8.1,2.44A28.23,28.23,0,0,0,35,65a1.11,1.11,0,0,0,0-2.21,25.93,25.93,0,0,1-8.11-.58l-8.26-2.49c-.11,0-5.61,0-5.61,0V44.75h5.29a1.12,1.12,0,0,0,.84-.38,10.52,10.52,0,0,1,14.34-1.53,9.67,9.67,0,0,0,5.8,1.91H50.52A3.25,3.25,0,0,1,53.76,48a3.33,3.33,0,0,1-3.24,3.24H36.33a1.11,1.11,0,1,0,0,2.21H50.52a5.65,5.65,0,0,0,5.11-3.56L67.76,39.73A3.23,3.23,0,0,1,72,44.64L53.06,61.19a6.31,6.31,0,0,1-4.17,1.56H39.8a1.11,1.11,0,0,0,0,2.21h9.09a8.48,8.48,0,0,0,5.62-2.12l18.9-16.55A5.47,5.47,0,0,0,74,38.76Zm-16-36.51c.8-.17,2.19,0,2.19,1.11A15.28,15.28,0,0,1,45,18.62c-.78.17-2.09,0-2.18-1A15.48,15.48,0,0,1,58.08,2.25ZM10.82,43.64h0V60.74h0v2H2.21V41.61h8.61Z"/></g></g></svg>