<svg xmlns="http://www.w3.org/2000/svg" viewBox="0 0 68 68"><defs><style>.cls-1{fill:#00945c;}</style></defs><title>Fichier 26</title><g id="Calque_2" data-name="Calque 2"><g id="content"><path class="cls-1" d="M67.19,38a15.48,15.48,0,0,1-.76-4,15.88,15.88,0,0,1,.75-4c.6-2.17,1.22-4.41.49-6.56h0c-.75-2.24-2.67-3.72-4.52-5.16a16,16,0,0,1-2.93-2.65,15.7,15.7,0,0,1-1.75-3.53c-.85-2.11-1.73-4.3-3.68-5.66S50.46,5,48.12,4.89A17.07,17.07,0,0,1,44,4.36a16.22,16.22,0,0,1-3.48-1.82C38.53,1.29,36.46,0,34,0s-4.53,1.29-6.52,2.54A16.28,16.28,0,0,1,24,4.36a17.07,17.07,0,0,1-4.11.53c-2.35.13-4.76.26-6.67,1.59S10.39,10,9.54,12.13a15.59,15.59,0,0,1-1.76,3.54,16.55,16.55,0,0,1-2.93,2.66C3,19.77,1.08,21.25.33,23.48S.22,27.87.82,30a15.68,15.68,0,0,1,.75,4,15.62,15.62,0,0,1-.74,3.93c-.61,2.2-1.23,4.44-.5,6.6S3,48.24,4.84,49.67a16.17,16.17,0,0,1,2.94,2.66,16.15,16.15,0,0,1,1.76,3.53c.84,2.12,1.72,4.3,3.67,5.66s4.33,1.47,6.67,1.59a17.58,17.58,0,0,1,4.11.53,16.22,16.22,0,0,1,3.48,1.82C29.47,66.71,31.53,68,34,68s4.53-1.29,6.53-2.54A16.22,16.22,0,0,1,44,63.64a17.65,17.65,0,0,1,4.11-.53c2.34-.13,4.76-.26,6.67-1.59s2.83-3.54,3.68-5.66a15.29,15.29,0,0,1,1.75-3.53,15.65,15.65,0,0,1,2.93-2.65c1.86-1.44,3.77-2.92,4.52-5.16S67.78,40.13,67.19,38Zm-2.41.66h0l-1.67.46,1.68-.43c.52,1.88,1,3.66.52,5.08s-2.12,2.77-3.68,4a17.54,17.54,0,0,0-3.39,3.12,17.57,17.57,0,0,0-2.08,4.1c-.75,1.86-1.46,3.62-2.79,4.55s-3.29,1-5.36,1.14a20,20,0,0,0-4.74.64,18.16,18.16,0,0,0-4.06,2.09c-1.78,1.11-3.46,2.16-5.21,2.16s-3.42-1.05-5.2-2.15a18.33,18.33,0,0,0-4.07-2.1A20.11,20.11,0,0,0,20,60.62c-2.08-.11-4.05-.21-5.37-1.14s-2-2.68-2.79-4.53a17.34,17.34,0,0,0-2.09-4.12,18,18,0,0,0-3.38-3.12c-1.56-1.21-3.17-2.45-3.69-4s0-3.21.52-5.09A18,18,0,0,0,4.06,34a18.06,18.06,0,0,0-.84-4.61c-.52-1.9-1-3.69-.53-5.11s2.13-2.78,3.69-4a17.77,17.77,0,0,0,3.38-3.11,17.65,17.65,0,0,0,2.09-4.11c.75-1.86,1.45-3.62,2.78-4.55s3.3-1,5.38-1.14a20,20,0,0,0,4.72-.64,17.68,17.68,0,0,0,4.05-2.08C30.57,3.54,32.24,2.49,34,2.49s3.43,1,5.21,2.16a17.36,17.36,0,0,0,4.06,2.08A19.18,19.18,0,0,0,48,7.37c2.08.11,4,.22,5.38,1.15s2,2.69,2.78,4.54a17.46,17.46,0,0,0,2.09,4.11,18,18,0,0,0,3.38,3.12c1.56,1.21,3.18,2.45,3.69,4s0,3.2-.52,5.08A18.1,18.1,0,0,0,63.94,34,18.06,18.06,0,0,0,64.78,38.62Z"/><path class="cls-1" d="M49.13,34A15.13,15.13,0,1,1,34,18.87h1.25V16.38H34A17.62,17.62,0,1,0,51.62,34V32.75H49.13Z"/><polygon class="cls-1" points="31.02 29.26 29.26 31.02 34 35.76 47.67 22.09 45.91 20.33 34 32.24 31.02 29.26"/></g></g></svg>