<svg xmlns="http://www.w3.org/2000/svg" viewBox="0 0 96.84 51"><defs><style>.cls-1{fill:#00945c;}</style></defs><title>Fichier 20</title><g id="Calque_2" data-name="Calque 2"><g id="content"><path class="cls-1" d="M95.63,25.39l-2-2-4-12.06.36-.11a1.05,1.05,0,0,0-.32-2.06H75.45V2.58A2.59,2.59,0,0,0,72.86,0H2.58A2.59,2.59,0,0,0,0,2.58V36.2a2.59,2.59,0,0,0,2.58,2.58h2v3.53a2.59,2.59,0,0,0,2.59,2.58h3.6l.06.3A7.16,7.16,0,0,0,23.67,48l.3-.42.31.42a7.16,7.16,0,0,0,12.84-2.83l.06-.3H73.41l.06.3a7.16,7.16,0,0,0,14.2-1.36v-.37l.37-.1h6.21a2.59,2.59,0,0,0,2.59-2.58V28.29A4.06,4.06,0,0,0,95.63,25.39Zm-3.86-.95H82a.47.47,0,0,1-.47-.47V17.39h7.86Zm-79.52,15a7,7,0,0,0-1.42,3.09l-.06.3H7.17a.48.48,0,0,1-.48-.47V38.78h6Zm5.61,9.5a5.06,5.06,0,1,1,5.06-5.06A5.06,5.06,0,0,1,17.86,48.89Zm12.22,0a5.06,5.06,0,1,1,5.06-5.06A5.06,5.06,0,0,1,30.08,48.89Zm44.81-9.5a7.11,7.11,0,0,0-1.42,3.09l-.06.3H37.18l-.06-.3a7.28,7.28,0,0,0-1.42-3.09l-.49-.61H63.7a1.06,1.06,0,0,0,0-2.11H2.58a.47.47,0,0,1-.47-.47V2.58a.47.47,0,0,1,.47-.47H72.86a.48.48,0,0,1,.48.47V36.67H69.81a1.06,1.06,0,1,0,0,2.11h5.56Zm5.61,9.5a5.06,5.06,0,1,1,5.06-5.06A5.06,5.06,0,0,1,80.5,48.89ZM94.73,32.08h-2a1.06,1.06,0,0,0,0,2.12h2v6.58a.48.48,0,0,1-.48.47H87.19l-.1-.23a7.16,7.16,0,0,0-6.59-4.35h-5V11.75a.47.47,0,0,1,.47-.47H87.38l1.34,4H80.5a1,1,0,0,0-1,1V24A2.58,2.58,0,0,0,82,26.55H93.82l.32.33a2,2,0,0,1,.59,1.41Z"/></g></g></svg>