<svg xmlns="http://www.w3.org/2000/svg" viewBox="0 0 43.9 58.8"><defs><style>.cls-1{fill:#00945c;}</style></defs><title>Fichier 31</title><g id="Calque_2" data-name="Calque 2"><g id="footer"><path class="cls-1" d="M42.73,34a3.35,3.35,0,0,0-4.67.37l-5.19,5.34-.09-.11a3.31,3.31,0,0,0-2.58-1.24H20.53a11.1,11.1,0,0,0-4.27-.85,10.5,10.5,0,0,0-9.61,5.45L6.6,43l-.09,0a2.28,2.28,0,0,0-.45,0,2.43,2.43,0,0,0-1.74.72L.21,47.79a.75.75,0,0,0,0,1L9.9,58.58a.74.74,0,0,0,1,0l4.18-4.12a2.47,2.47,0,0,0,.58-2.55l0-.07.95-.92a2.71,2.71,0,0,1,1.89-.76H30A7.6,7.6,0,0,0,35.31,48s.23-.26,1.32-1.58l6.49-7.75A3.34,3.34,0,0,0,42.73,34ZM14.08,53.42,10.43,57l-.09-.09L1.78,48.31l3.58-3.6a1,1,0,0,1,1.22-.14c.15.09,7.55,7.52,7.59,7.57A1,1,0,0,1,14.08,53.42ZM42,37.72,34.26,47A6.13,6.13,0,0,1,30,48.69H18.52a4.17,4.17,0,0,0-2.91,1.17l-.82.8-.09-.09L7.88,43.75l0-.08A9.08,9.08,0,0,1,16.26,39a9.59,9.59,0,0,1,3.85.8.73.73,0,0,0,.29.07h9.8a1.85,1.85,0,0,1,0,3.7h-7a.74.74,0,1,0,0,1.47h7a3.32,3.32,0,0,0,3.32-3.32,3.25,3.25,0,0,0,0-.44v-.06l3.76-3.86,1.93-2A1.85,1.85,0,1,1,42,37.72Z"/><rect class="cls-1" x="17.83" y="22.75" width="5.97" height="1.53"/><path class="cls-1" d="M39.75,26.36V8.63l1.08-1.08A4.42,4.42,0,1,0,34.57,1.3L28.82,7H12.62V34.17H31.94Zm-4.1-24a2.89,2.89,0,1,1,4.09,4.09L38.56,7.65,34.47,3.56ZM33.39,4.64l.09.09,4,4-.18.18-6.69,6.68-4.09-4.08Zm-3.86,12L27.9,18.31H23.81V14.22l.07-.07,1.56-1.56Zm.31,16H14.15V8.58H27.29l-5,5v4.72H17.83v1.53h10.7l9.69-9.68V24.27H29.84Zm1.53-6.84h6.77l-.42.43-6.35,6.34Z"/></g></g></svg>