<svg xmlns="http://www.w3.org/2000/svg" viewBox="0 0 112.48 76"><defs><style>.cls-1{fill:#00945c;}</style></defs><title>Fichier 18</title><g id="Calque_2" data-name="Calque 2"><g id="content"><path class="cls-1" d="M111.13,73.31H87.8V41.4a1.35,1.35,0,0,0-2.69,0V73.31h-4.6V41.4a1.34,1.34,0,0,0-1.34-1.34H33.31A1.35,1.35,0,0,0,32,41.4V73.31H27.24V30.11H85.11V34.8a1.35,1.35,0,1,0,2.69,0V30.11H97a1.35,1.35,0,0,0,0-2.69H15.48a1.35,1.35,0,1,0,0,2.69h9.07v43.2H1.34a1.35,1.35,0,0,0,0,2.69H111.13a1.35,1.35,0,1,0,0-2.69Zm-33.31,0H34.65V70.54H77.82Zm0-5.46H34.65V65H77.82Zm0-5.56H34.65V59.42H77.82Zm0-5.56H34.65V53.87H77.82Zm0-5.55H34.65V48.31H77.82Zm0-5.56H34.65V42.75H77.82Z"/><path class="cls-1" d="M15.48,24.77H97a1.35,1.35,0,0,0,0-2.69H87.8V1.34A1.35,1.35,0,0,0,86,.08l-60.33,22H15.48a1.35,1.35,0,1,0,0,2.69ZM85.11,3.27V22.08H33.51Z"/></g></g></svg>