<svg xmlns="http://www.w3.org/2000/svg" viewBox="0 0 16.5 16.5"><defs><style>.cls-1{fill:#a66d4b;}</style></defs><title>Fichier 1</title><g id="Calque_2" data-name="Calque 2"><g id="header"><path class="cls-1" d="M15.91,11l-3.67-.78a.75.75,0,0,0-.68.2l-1.21,1.21A12.94,12.94,0,0,1,4.87,6.15L6.08,4.94a.75.75,0,0,0,.2-.69L5.5.59A.77.77,0,0,0,4.76,0,4.75,4.75,0,0,0,2.51.56,4.84,4.84,0,0,0,.86,2a4.89,4.89,0,0,0-.81,2,4.76,4.76,0,0,0,.24,2.3,16.51,16.51,0,0,0,3.83,6,16.51,16.51,0,0,0,6,3.83,4.77,4.77,0,0,0,1.62.29,5.31,5.31,0,0,0,.68-.05,4.89,4.89,0,0,0,2-.81A4.84,4.84,0,0,0,15.94,14a4.75,4.75,0,0,0,.56-2.25A.77.77,0,0,0,15.91,11ZM3.42,5.47a.75.75,0,0,0-.14.85,14.37,14.37,0,0,0,6.9,6.9.75.75,0,0,0,.85-.14l1.3-1.31,2.62.56a3.25,3.25,0,0,1-4.3,2.47,14.88,14.88,0,0,1-9-9,3.19,3.19,0,0,1,.39-3A3.22,3.22,0,0,1,4.17,1.55l.56,2.62Z"/></g></g></svg>