<svg xmlns="http://www.w3.org/2000/svg" viewBox="0 0 18.46 15"><defs><style>.cls-1{fill:#66402c;}</style></defs><title>Fichier 5</title><g id="Calque_2" data-name="Calque 2"><g id="header"><path class="cls-1" d="M18.46,1.78a7.64,7.64,0,0,1-2.18.59A3.74,3.74,0,0,0,18,.28a7.52,7.52,0,0,1-2.4.92A3.79,3.79,0,0,0,9,3.79a3.49,3.49,0,0,0,.09.86,10.68,10.68,0,0,1-7.8-4A3.78,3.78,0,0,0,2.45,5.75,3.67,3.67,0,0,1,.74,5.28v0A3.8,3.8,0,0,0,3.77,9a3.54,3.54,0,0,1-1,.13,3.45,3.45,0,0,1-.72-.07A3.83,3.83,0,0,0,5.6,11.74,7.58,7.58,0,0,1,.91,13.35a6.85,6.85,0,0,1-.91,0A10.67,10.67,0,0,0,5.81,15,10.7,10.7,0,0,0,16.58,4.23c0-.17,0-.33,0-.49A7.38,7.38,0,0,0,18.46,1.78Z"/></g></g></svg>