<svg xmlns="http://www.w3.org/2000/svg" viewBox="0 0 63.5 21.88"><defs><style>.cls-1{fill:#fff;}</style></defs><title>Fichier 10</title><g id="Calque_2" data-name="Calque 2"><g id="content"><rect class="cls-1" x="38.76" y="14.92" width="11.6" height="1.99"/><rect class="cls-1" x="38.76" y="9.95" width="11.6" height="1.99"/><rect class="cls-1" x="38.76" y="4.97" width="11.6" height="1.99"/><rect class="cls-1" x="10.63" y="4.97" width="22.66" height="1.99"/><rect class="cls-1" x="10.63" y="9.95" width="22.66" height="1.99"/><rect class="cls-1" x="33.79" y="12.43" width="1.99" height="1.98"/><rect class="cls-1" x="8.14" y="12.43" width="1.99" height="1.98"/><rect class="cls-1" x="10.63" y="14.92" width="22.66" height="1.99"/><rect class="cls-1" x="33.79" y="7.46" width="1.99" height="1.99"/><rect class="cls-1" x="8.14" y="7.46" width="1.99" height="1.99"/><polygon class="cls-1" points="55.34 19.89 55.34 1.99 56.88 1.99 56.88 0 6.62 0 6.62 1.99 8.14 1.99 8.14 4.47 10.13 4.47 10.13 1.99 33.79 1.99 33.79 4.47 35.78 4.47 35.78 1.99 53.35 1.99 53.35 19.89 35.78 19.89 35.78 17.4 33.79 17.4 33.79 19.89 10.13 19.89 10.13 17.4 8.14 17.4 8.14 19.89 0 19.89 0 21.88 63.5 21.88 63.5 19.89 55.34 19.89"/></g></g></svg>