<svg xmlns="http://www.w3.org/2000/svg" viewBox="0 0 32.31 32.32"><defs><style>.cls-1{fill:#00945c;}</style></defs><title>Fichier 29</title><g id="Calque_2" data-name="Calque 2"><g id="content"><path class="cls-1" d="M22.8,0H9.52A9.53,9.53,0,0,0,0,9.52V22.8a9.53,9.53,0,0,0,9.52,9.52H22.8a9.53,9.53,0,0,0,9.51-9.52V9.52A9.53,9.53,0,0,0,22.8,0Zm6.75,22.8a6.76,6.76,0,0,1-6.75,6.75H9.52A6.76,6.76,0,0,1,2.76,22.8V9.52A6.76,6.76,0,0,1,9.52,2.76H22.8a6.76,6.76,0,0,1,6.75,6.76Z"/><path class="cls-1" d="M16.16,7.93a8.23,8.23,0,1,0,8.22,8.23A8.24,8.24,0,0,0,16.16,7.93Zm0,13.69a5.47,5.47,0,1,1,5.46-5.46A5.47,5.47,0,0,1,16.16,21.62Z"/><circle class="cls-1" cx="24.67" cy="7.72" r="1.54"/></g></g></svg>