<svg xmlns="http://www.w3.org/2000/svg" viewBox="0 0 75.59 68"><defs><style>.cls-1{fill:#00945c;}</style></defs><title>Fichier 24</title><g id="Calque_2" data-name="Calque 2"><g id="content"><path class="cls-1" d="M59.74,31.46A21.95,21.95,0,1,0,37.8,53.4,22,22,0,0,0,59.74,31.46Zm-41.48,0A19.54,19.54,0,1,1,37.8,51,19.55,19.55,0,0,1,18.26,31.46Z"/><path class="cls-1" d="M68.2,20.27a5.56,5.56,0,0,0-.81.08l-.17,0-.07-.17a31.43,31.43,0,0,0-58.73,0l-.06.17-.18,0a7,7,0,0,0-.8-.08C3.25,20.27,0,25.18,0,31.46S3.25,42.65,7.39,42.65a5.11,5.11,0,0,0,2-.43A1.07,1.07,0,0,0,10,40.91a29.23,29.23,0,0,1-1.57-9.45c0-.65,0-1.34.09-2.17l0-.43c.07-.72.15-1.42.26-2.1l0-.29c.14-.78.28-1.46.44-2.09h.22l-.2-.08c.17-.7.38-1.41.64-2.16a29.33,29.33,0,0,1,27.76-20h.06A29.35,29.35,0,0,1,65.58,22a30.24,30.24,0,0,1,1,3.68,29,29,0,0,1,.5,3.36c.06.8.1,1.62.1,2.42A41.85,41.85,0,0,1,66,41.17C63.5,51.53,56,62.78,42.55,63.3h-.12l-.07-.11a4.89,4.89,0,0,0-4.21-2.39h-.34c-2.74,0-4.87,1.58-4.87,3.59S35.07,68,37.8,68a4.89,4.89,0,0,0,4.59-2.47l.06-.11h.12c12-.45,21.46-8.9,25.17-22.62l0-.16h.42c4.14,0,7.39-4.92,7.39-11.19S72.34,20.27,68.2,20.27Zm-60.61,20,.08.27H7.39c-2.86,0-5.28-4.16-5.28-9.08s2.42-9.08,5.28-9.08h.29l-.09.27s0,.06,0,.09l0,.1c-.16.59-.32,1.19-.45,1.77L7,24.9c-.14.66-.26,1.33-.36,2l0,.38c-.07.54-.13,1.09-.17,1.63l0,.55c0,.77-.07,1.41-.07,2A31.64,31.64,0,0,0,7.59,40.27ZM37.8,65.88c-1.58,0-2.75-.78-2.75-1.48s1.17-1.48,2.75-1.48,2.74.78,2.74,1.48S39.37,65.88,37.8,65.88ZM68.6,40.51l-.3,0,.06-.29c0-.11,0-.23.06-.34l.06-.29c.06-.31.11-.62.16-.94.09-.49.16-1,.22-1.49l0-.1c0-.27.07-.54.1-.81.06-.54.11-1.09.15-1.63l0-.3c0-.16,0-.32,0-.48,0-.87.07-1.66.07-2.42s0-1.57-.1-2.43c0-.16,0-.31,0-.47l0-.31c0-.48-.11-1.05-.2-1.62,0-.22-.07-.44-.11-.66l-.05-.25c-.1-.54-.2-1-.31-1.47s-.15-.63-.24-.95c0-.1,0-.2-.07-.3L68,22.65l-.08-.27h.28c2.86,0,5.28,4.16,5.28,9.08C73.48,36.17,71.34,40.15,68.6,40.51Z"/><path class="cls-1" d="M36.94,24.49a2.56,2.56,0,0,1,1.93-.74,2.34,2.34,0,0,1,1.74.66,2.43,2.43,0,0,1,.66,1.81,2.56,2.56,0,0,1-1.37,2.49,8.06,8.06,0,0,1-3.6.66H34.41v5.81H39V32.4h.21a7.59,7.59,0,0,0,5-1.7,5.69,5.69,0,0,0,1.85-4.5,6,6,0,0,0-1.9-4.74,7.6,7.6,0,0,0-5.15-1.65,9.13,9.13,0,0,0-4.13.86A5.89,5.89,0,0,0,32.4,23a6.33,6.33,0,0,0-.78,3.11h4.63A2.52,2.52,0,0,1,36.94,24.49Z"/><rect class="cls-1" x="34.16" y="38.17" width="5.15" height="4.93"/></g></g></svg>