<svg xmlns="http://www.w3.org/2000/svg" viewBox="0 0 42 42"><defs><style>.cls-1{fill:#00945c;}</style></defs><title>Fichier 32</title><g id="Calque_2" data-name="Calque 2"><g id="footer"><path class="cls-1" d="M30.1,23.8A11.9,11.9,0,1,0,19.16,7.21,7.87,7.87,0,0,0,17.43,7c-5,0-9.1,4.41-9.1,9.8V31A25.92,25.92,0,0,0,3.5,32.76l-1.68.84A3.27,3.27,0,0,0,0,36.54V41.3a.66.66,0,0,0,.7.7H34.3a1.18,1.18,0,0,0,.7-.21.64.64,0,0,0,.21-.49V36.54a3.27,3.27,0,0,0-1.82-2.94l-1.68-.84a27.43,27.43,0,0,0-5.25-1.91V23.23A11.85,11.85,0,0,0,30.1,23.8ZM19.59,17.5l.34.59a11.87,11.87,0,0,0,3.1,3.4C22.61,25.27,20.37,28,17.5,28a4.4,4.4,0,0,1-1.69-.34,5,5,0,0,1-1.25-.78.7.7,0,0,0-.17-.13A8.67,8.67,0,0,1,11.9,20.3V17.36a3,3,0,0,0,2-1.68A2.85,2.85,0,0,0,16.8,17.5Zm4.78,4.83c.27.15.55.29.83.42v7.77a31.38,31.38,0,0,0-3.36-.41V27.54A9.5,9.5,0,0,0,24.37,22.33ZM17.5,8.4a6.67,6.67,0,0,1,1.18.14l-.09.34a11.15,11.15,0,0,0-.39,2.71h0v.3c0,.13,0,.26,0,.39v.1c0,.12,0,.24,0,.36v0c0,.14,0,.28,0,.41v0A12,12,0,0,0,19,16.1H16.87c-1.4,0-1.68-.77-2.1-2.87v-.07a.72.72,0,0,0-1.4,0C13,15.61,11.9,16,11.13,16.1a.74.74,0,0,0-.63.7v3.5a10.1,10.1,0,0,0,2.8,7.38v2.49a16.58,16.58,0,0,0-2.74.29h-.13l-.13.05-.5.09V16.8h0C9.8,12.18,13.23,8.4,17.5,8.4ZM9.8,40.6V39.2a.7.7,0,1,0-1.4,0v1.4h-7V36.54a2.06,2.06,0,0,1,1.05-1.75c.49-.28,1-.56,1.61-.84A24.79,24.79,0,0,1,8.9,32.13a.56.56,0,0,0,.34,0h0l-1.52,3.3a.77.77,0,0,0,.28.91L15,40.6Zm-.49-5.18,1.33-2.87L15.05,39Zm8.19,4.65L11.73,31.7c.53-.07,1-.12,1.57-.16v.66a.7.7,0,0,0,1.4,0V28.7a5.7,5.7,0,0,0,5.6,0v3.5a.7.7,0,0,0,1.4,0v-.66c.52,0,1,.09,1.57.16Zm6.86-7.52,1.33,2.87L20,38.92ZM30.94,34c.49.28,1,.56,1.61.84a2.06,2.06,0,0,1,1.05,1.75V40.6h-7V39.2a.7.7,0,0,0-1.4,0v1.4H20L27,36.33a.77.77,0,0,0,.28-.91l-1.52-3.3h.35A24.32,24.32,0,0,1,30.94,34ZM24.37,20.7l-.15-.12a10.86,10.86,0,0,1-3.5-4.06.81.81,0,0,0-.17-.23A10.51,10.51,0,1,1,30.1,22.4,10.38,10.38,0,0,1,24.37,20.7Z"/><path class="cls-1" d="M33.53,19.6a4.55,4.55,0,0,0,3.08-1.33l.7-.7a1.92,1.92,0,0,0,.28-2.1,8.33,8.33,0,0,0-2.66-2.38,1.53,1.53,0,0,0-1.33-.21,1.25,1.25,0,0,0-.77.56c-.21.28-.49.63-.56.7A.74.74,0,0,1,31.15,14l-3.08-3.08a.74.74,0,0,1-.14-1.12,7.8,7.8,0,0,1,.7-.63,1.25,1.25,0,0,0,.56-.77A1.53,1.53,0,0,0,29,7.07,8.33,8.33,0,0,0,26.6,4.41a1.7,1.7,0,0,0-2.1.28l-.7.7a4.27,4.27,0,0,0-.91,5.11,5.82,5.82,0,0,0,1.26,1.75l5.53,5.53a5.19,5.19,0,0,0,1.4,1.12A4.86,4.86,0,0,0,33.53,19.6Zm-8.47-8.26a5.68,5.68,0,0,1-1-1.4,2.79,2.79,0,0,1,.63-3.5l.7-.7a.53.53,0,0,1,.28-.14.26.26,0,0,1,.21.07,6.7,6.7,0,0,1,1.82,2.1.54.54,0,0,1,.07.21l-.07.07a6.63,6.63,0,0,0-1,.91A2.16,2.16,0,0,0,27,11.9L30,15a2.18,2.18,0,0,0,2.94.28,6.63,6.63,0,0,0,.91-1l.07-.07a.53.53,0,0,1,.28.07,7.73,7.73,0,0,1,2.1,1.82.33.33,0,0,1-.07.42l-.7.7a2.91,2.91,0,0,1-3.85.49,4.27,4.27,0,0,1-1.12-.84Z"/></g></g></svg>