<svg id="Calque_1" data-name="Calque 1" xmlns="http://www.w3.org/2000/svg" viewBox="0 0 16.33 22.08"><defs><style>.cls-1{fill:#a66d4b;}</style></defs><path class="cls-1" d="M34,31.38a3.25,3.25,0,1,1,3.25-3.26A3.26,3.26,0,0,1,34,31.38Zm0-4.5a1.25,1.25,0,1,0,1.25,1.24A1.25,1.25,0,0,0,34,26.88Z" transform="translate(-25.83 -19.96)"/><path class="cls-1" d="M34,42a1,1,0,0,1-.83-.44l-5.86-8.79a8.18,8.18,0,1,1,13.29.11l-5.77,8.67A1,1,0,0,1,34,42ZM34,22a6.17,6.17,0,0,0-6.17,6.16A6.1,6.1,0,0,0,29,31.68l5,7.56,5-7.46A6.16,6.16,0,0,0,34,22Z" transform="translate(-25.83 -19.96)"/></svg>