<svg xmlns="http://www.w3.org/2000/svg" viewBox="0 0 38.5 38.5"><defs><style>.cls-1{fill:#00945c;}</style></defs><title>Fichier 33</title><g id="Calque_2" data-name="Calque 2"><g id="footer"><path class="cls-1" d="M0,0V11H27.53V38.5h11V0ZM1.79,9.18V1.79h4v2.3H7.53V1.79h2.79V5.24h1.8V1.79h2.79v2.3h1.8V1.79H19.5V5.24h1.79V1.79h2.8v2.3h1.79V1.79h9.56L28.05,9.18Zm34.92,3.44h-2.3v1.79h2.3v2.8H33.26V19h3.45v2.79h-2.3v1.8h2.3v2.79H33.26v1.8h3.45V31h-2.3v1.79h2.3v4H29.32V10.45l7.39-7.39Z"/><polygon class="cls-1" points="21.79 34.41 5.36 34.41 20.85 18.91 19.59 17.65 4.09 33.14 4.09 16.71 6.38 16.71 6.38 14.91 0 14.91 0 16.71 2.29 16.71 2.29 36.21 21.79 36.21 21.79 38.5 23.59 38.5 23.59 32.12 21.79 32.12 21.79 34.41"/></g></g></svg>