<svg xmlns="http://www.w3.org/2000/svg" viewBox="0 0 30 30"><defs><style>.cls-1{fill:#fff;}</style></defs><title>Fichier 8</title><g id="Calque_2" data-name="Calque 2"><g id="header"><path class="cls-1" d="M28.93,13.93H11.63a4.26,4.26,0,0,0-8.26,0H1.07a1.07,1.07,0,0,0,0,2.14h2.3a4.26,4.26,0,0,0,8.26,0h17.3a1.07,1.07,0,0,0,0-2.14ZM7.5,17.14A2.14,2.14,0,1,1,9.64,15,2.14,2.14,0,0,1,7.5,17.14Z"/><path class="cls-1" d="M1.07,5.36H17.3a4.26,4.26,0,0,0,8.26,0h3.37a1.08,1.08,0,0,0,0-2.15H25.56a4.26,4.26,0,0,0-8.26,0H1.07a1.08,1.08,0,0,0,0,2.15ZM21.43,2.14a2.15,2.15,0,1,1-2.14,2.15A2.14,2.14,0,0,1,21.43,2.14Z"/><path class="cls-1" d="M28.93,24.64H23.42a4.27,4.27,0,0,0-8.27,0H1.07a1.08,1.08,0,0,0,0,2.15H15.15a4.27,4.27,0,0,0,8.27,0h5.51a1.08,1.08,0,0,0,0-2.15Zm-9.64,3.22a2.15,2.15,0,1,1,2.14-2.15A2.15,2.15,0,0,1,19.29,27.86Z"/></g></g></svg>