<svg xmlns="http://www.w3.org/2000/svg" viewBox="0 0 58.11 70"><defs><style>.cls-1{fill:#00945c;}</style></defs><title>Fichier 17</title><g id="Calque_2" data-name="Calque 2"><g id="content"><polygon class="cls-1" points="0 57.71 7.68 65.39 15.36 57.71 8.97 57.71 8.97 12.29 15.36 12.29 7.68 4.61 0 12.29 6.38 12.29 6.38 57.71 0 57.71"/><path class="cls-1" d="M7.68,2.49h9.23a1.25,1.25,0,1,0,0-2.49H7.68a1.25,1.25,0,1,0,0,2.49Z"/><path class="cls-1" d="M56.86,12.35a1.25,1.25,0,1,0,0-2.49H39.78V2.49H56.86a1.25,1.25,0,1,0,0-2.49H22.62a1.25,1.25,0,1,0,0,2.49H37.29v65H7.68a1.25,1.25,0,1,0,0,2.49H56.86a1.25,1.25,0,1,0,0-2.49H39.78v-8H56.86a1.25,1.25,0,1,0,0-2.49H39.78v-9.3H56.86a1.25,1.25,0,1,0,0-2.49H39.78v-9.3H56.86a1.25,1.25,0,1,0,0-2.49H39.78V24.14H56.86a1.25,1.25,0,0,0,0-2.5H39.78V12.35Z"/></g></g></svg>