<svg xmlns="http://www.w3.org/2000/svg" viewBox="0 0 91.21 68.94"><defs><style>.cls-1{fill:#00945c;}</style></defs><title>Fichier 19</title><g id="Calque_2" data-name="Calque 2"><g id="content"><path class="cls-1" d="M52.68,31.13a5.58,5.58,0,0,0-.28-1.81c-.15-.34-1.49-.62-2.15-.62H41.06a5.36,5.36,0,0,0-1.81.28c-.34.15-.62,1.49-.62,2.15V37.9a5.63,5.63,0,0,0,.28,1.81c.15.34,1.49.62,2.15.62h9.19a5.58,5.58,0,0,0,1.81-.28c.34-.15.62-1.49.62-2.15Zm-2.46,5.53a1.2,1.2,0,0,1-1.2,1.2H42.29a1.2,1.2,0,0,1-1.2-1.2v-4.3a1.2,1.2,0,0,1,1.2-1.2H49a1.2,1.2,0,0,1,1.2,1.2Z"/><path class="cls-1" d="M90.66,51.29a5.69,5.69,0,0,0-1.74-.24H88a5.62,5.62,0,0,1-1.55-.16c-.2-.09-.36-1.1-.36-1.76v-9a1.1,1.1,0,1,0-2.19,0v9a13,13,0,0,1-.07,1.57l-.14.14-.13.13a12.52,12.52,0,0,1-1.57.08h-12a5.76,5.76,0,0,1-1.56-.16c-.2-.09-.36-1.1-.36-1.76V35.68A8.69,8.69,0,0,1,68.17,34l.24-.12a.8.8,0,0,1,.33-.08h.15a4.2,4.2,0,0,1,.55.35l.32.23h0l0,0h0l.06,0,.26.06a2.28,2.28,0,0,0,.54-.05s.06,0,.06,0h0l.32-.29a5,5,0,0,0,.29-1.89V24.71a11.39,11.39,0,0,0-.08-1.53A5.85,5.85,0,0,0,70,21.92l-8-5.87A10.26,10.26,0,0,1,60.77,15v-.46A10.26,10.26,0,0,1,62,13.47l.21-.15a7.67,7.67,0,0,1,1.27-.81,4.39,4.39,0,0,1,1.51.81L82.6,26.23a11.9,11.9,0,0,1,1.12.89,6.22,6.22,0,0,1,.14,1.6v6.14c0,.33.49.61,1.1.61s1.09-.28,1.09-.61V31.38a7.91,7.91,0,0,1,.15-1.72l.24-.12.24-.13a3.76,3.76,0,0,1,.78.39,5.5,5.5,0,0,0,1.05.47l.36-.18.37-.19a8.48,8.48,0,0,0,.23-2V20.41a11.7,11.7,0,0,0-.08-1.54,5.86,5.86,0,0,0-1.33-1.25L65.25.86A7.56,7.56,0,0,0,63.83,0,4.29,4.29,0,0,0,62,.86L53.08,7.43a7.87,7.87,0,0,1-1.26.8,4.25,4.25,0,0,1-1.52-.8L47.22,5.17a6.93,6.93,0,0,0-1.42-.86A4.21,4.21,0,0,0,44,5.17L40.91,7.43a7.87,7.87,0,0,1-1.26.8,4.25,4.25,0,0,1-1.52-.8L29.19.86A7.25,7.25,0,0,0,27.77,0,4.29,4.29,0,0,0,26,.86L3.15,17.62A10,10,0,0,0,2,18.6a5.87,5.87,0,0,0-.22,1.81v7.51a8.48,8.48,0,0,0,.23,2l.37.19.36.19a6.08,6.08,0,0,0,1-.48,4.33,4.33,0,0,1,.78-.39l.24.13.24.12a8.61,8.61,0,0,1,.15,1.72V49.13A5.76,5.76,0,0,1,5,50.69c-.09.2-1.1.36-1.76.36h-1a5.69,5.69,0,0,0-1.74.24c-.3.14-.55,1.39-.55,2.05v13.3a5.77,5.77,0,0,0,.24,1.75c.14.3,1.39.55,2.05.55H88.92a5.35,5.35,0,0,0,1.74-.25c.3-.13.55-1.39.55-2V53.34C91.21,52.68,91,51.43,90.66,51.29ZM54,9.58a10.12,10.12,0,0,1,1.26-1.07l7-5.1a8.44,8.44,0,0,1,1.27-.81A4.39,4.39,0,0,1,65,3.41L86,18.84a11.78,11.78,0,0,1,1.11.88,6.12,6.12,0,0,1,.15,1.6v3a8.69,8.69,0,0,1-.15,1.72l-.25.12-.24.12a8.11,8.11,0,0,1-1.47-.89L65.25,10.77a14.34,14.34,0,0,0-1.39-.92h-.23a1.08,1.08,0,0,0-.55.15l0,0-1,.75-2.2,1.61a7.87,7.87,0,0,1-1.26.8,4.16,4.16,0,0,1-1.52-.8l-1.75-1.29A10.26,10.26,0,0,1,54,10V9.58ZM44.21,7.71a14.89,14.89,0,0,1,1.25-.85h.29c.15.08.71.46,1.25.85L68,23.14a11.26,11.26,0,0,1,1.11.89,6.07,6.07,0,0,1,.15,1.6v3a8.49,8.49,0,0,1-.15,1.71l-.25.13-.23.12a8,8,0,0,1-1.48-.9L47.22,15.07l-1-.75h0a1.1,1.1,0,0,0-1.12,0l0,0-1,.75L24.06,29.71a8.29,8.29,0,0,1-1.47.9l-.25-.12-.24-.13A8.49,8.49,0,0,1,22,28.65v-3A11.74,11.74,0,0,1,22,24.21a5.84,5.84,0,0,1,1.2-1.07Zm7.85,37a5.69,5.69,0,0,0-1.74-.24H40.89a5.69,5.69,0,0,0-1.74.24c-.3.14-.55,1.39-.55,2.05V57a5.76,5.76,0,0,1-.16,1.56c-.09.2-1.1.36-1.76.36H27.29a5.76,5.76,0,0,1-1.56-.16c-.2-.09-.36-1.1-.36-1.76V33a11.74,11.74,0,0,1,.06-1.42,6.16,6.16,0,0,1,1.2-1.07L44.21,17.62a7.4,7.4,0,0,1,1.27-.8,4.24,4.24,0,0,1,1.52.8L64.58,30.53a11.26,11.26,0,0,1,1.11.89,6.12,6.12,0,0,1,.15,1.6V57a12.4,12.4,0,0,1-.08,1.57l-.13.14-.14.14a13,13,0,0,1-1.57.07H54.53A5.7,5.7,0,0,1,53,58.74c-.2-.09-.36-1.1-.36-1.76V46.78C52.61,46.12,52.36,44.87,52.06,44.73ZM50.26,47a5.76,5.76,0,0,1,.16,1.56V57a5.76,5.76,0,0,1-.16,1.56c-.09.2-1.09.36-1.75.36H42.7a5.76,5.76,0,0,1-1.56-.16A3.47,3.47,0,0,1,40.78,57V48.59A5.65,5.65,0,0,1,41,47c.08-.2,1.09-.36,1.75-.36h5.81C49.17,46.67,50.17,46.83,50.26,47ZM20.07,34.12l.3.28.26.1h.14l.26,0a5.38,5.38,0,0,0,.75-.43,3.67,3.67,0,0,1,.77-.38l.25.12L23,34a8.69,8.69,0,0,1,.15,1.72V49.13A5.76,5.76,0,0,1,23,50.69c-.09.2-1.1.36-1.76.36h-12a5.76,5.76,0,0,1-1.56-.16c-.19-.09-.35-1.1-.35-1.76V28.72A12.64,12.64,0,0,1,7.4,27.3a5.71,5.71,0,0,1,1.21-1.07L26.18,13.32c.54-.39,1.1-.78,1.25-.86h.29c.16.08.72.47,1.25.86l.21.15a10.26,10.26,0,0,1,1.26,1.06V15a10.26,10.26,0,0,1-1.26,1.06l-8,5.87a14.27,14.27,0,0,0-1.16.92,2.14,2.14,0,0,0-.25.57v8.81A4.9,4.9,0,0,0,20.07,34.12ZM6,25.41a8.12,8.12,0,0,1-1.48.89l-.23-.12-.25-.12a8.69,8.69,0,0,1-.15-1.72v-3A11.74,11.74,0,0,1,4,19.9a6.22,6.22,0,0,1,1.2-1.06l21-15.43c.54-.39,1.1-.78,1.25-.85h.29A12.7,12.7,0,0,1,29,3.41l7,5.1a10.12,10.12,0,0,1,1.26,1.07V10a10.26,10.26,0,0,1-1.26,1.06l-1.75,1.29a7.4,7.4,0,0,1-1.27.8,4.24,4.24,0,0,1-1.52-.8l-2.19-1.61a7.25,7.25,0,0,0-1.42-.85,4.29,4.29,0,0,0-1.81.85ZM2.18,55.15a6.21,6.21,0,0,1,.16-1.56c.09-.2,1.1-.36,1.76-.36H21.27a5.76,5.76,0,0,1,1.56.16c.2.09.36,1.1.36,1.76V57A5.76,5.76,0,0,1,23,58.54c-.09.2-1.1.36-1.76.36H4.1a5.76,5.76,0,0,1-1.56-.16c-.2-.09-.36-1.1-.36-1.76ZM89,64.84a5.51,5.51,0,0,1-.17,1.55c-.08.2-1.09.36-1.75.36H4.1a5.76,5.76,0,0,1-1.56-.16c-.2-.09-.36-1.09-.36-1.75V63a6.21,6.21,0,0,1,.16-1.56,3.47,3.47,0,0,1,1.76-.36H71.73A6.66,6.66,0,0,0,74,60.59v-1.2a6.66,6.66,0,0,0-2.29-.49H69.94a5.76,5.76,0,0,1-1.56-.16c-.2-.09-.36-1.1-.36-1.76V55.15a5.76,5.76,0,0,1,.16-1.56c.09-.2,1.1-.36,1.76-.36H87.11a5.76,5.76,0,0,1,1.56.16A3.47,3.47,0,0,1,89,55.15Z"/></g></g></svg>