<svg xmlns="http://www.w3.org/2000/svg" viewBox="0 0 79.99 80"><defs><style>.cls-1{fill:#00945c;}</style></defs><title>Fichier 15</title><g id="Calque_2" data-name="Calque 2"><g id="content"><path class="cls-1" d="M79.05,13.47H10V11.71A.94.94,0,0,0,9,10.77H6.32A6.34,6.34,0,0,0,0,17.1V64.24a5,5,0,0,0,5,5H43.67v.56h2.12v1.51H43.67v1.88h2.12v1.5H43.67v1.88h2.12v1.58H39.14V80H75.87V78.12H69.21V76.54h2.13V74.66H69.21v-1.5h2.13V71.28H69.21V69.77h2.13v-.56h7.71a.93.93,0,0,0,.94-.93V14.4A.94.94,0,0,0,79.05,13.47ZM1.87,17.1a4.45,4.45,0,0,1,4.45-4.45H8.08V59.26H5a4.92,4.92,0,0,0-2.49.67l-.62.36ZM67.34,67.89H47.66V66.33H67.34Zm0,10.23H47.66V76.54H67.34Zm0-3.46H47.66v-1.5H67.34Zm0-3.38H47.66V69.77H67.34Zm10.78-3.94H69.21V65.59a.93.93,0,0,0-.44-.8,3.08,3.08,0,0,0-1.49-.25H47.37a1.91,1.91,0,0,0-1.07.2,1,1,0,0,0-.51.85v1.75H5a3.11,3.11,0,1,1,0-6.21H9A.93.93,0,0,0,10,60.2V15.34H78.12Z"/><path class="cls-1" d="M10.36,7.26H68.28a1,1,0,0,0,.52-.16l4-2.69a1,1,0,0,0,.42-.78.94.94,0,0,0-.42-.78L68.8.16A.91.91,0,0,0,68.28,0H10.36a3.63,3.63,0,0,0,0,7.26Zm5-5.39H68l2.63,1.76L68,5.39H15.34Zm-5,0h3.11V5.39H10.36a1.76,1.76,0,0,1,0-3.52Z"/><path class="cls-1" d="M14.4,55.75H63.83v-36a.94.94,0,0,0-.94-.93H14.4a.93.93,0,0,0-.93.93v35A.94.94,0,0,0,14.4,55.75Zm.94-35H29.63v4H31.5v-4H62v21H53.88v1.87H62V53.88H31.5V43.62H47.66V41.75H31.5V31H29.63v22.9H15.34Z"/><rect class="cls-1" x="44.37" y="60.9" width="26.26" height="1.88"/></g></g></svg>