<svg xmlns="http://www.w3.org/2000/svg" viewBox="0 0 43.32 40.43"><defs><style>.cls-1{fill:#00945c;}</style></defs><title>Fichier 34</title><g id="Calque_2" data-name="Calque 2"><g id="footer"><path class="cls-1" d="M39,0H4.28A4.28,4.28,0,0,0,0,4.28V28.56a4.28,4.28,0,0,0,4.28,4.28h14l-.47,5.89H13a.85.85,0,1,0,0,1.7H30.28a.85.85,0,0,0,0-1.7H25.55l-.47-5.89H39a4.28,4.28,0,0,0,4.28-4.28V4.28A4.28,4.28,0,0,0,39,0ZM19.47,38.73l.47-5.89h3.44l.47,5.89Zm22.16-12.9H37.07a.85.85,0,0,0,0,1.7h4.56v1A2.59,2.59,0,0,1,39,31.15H4.28a2.59,2.59,0,0,1-2.59-2.59v-1H30.3a.85.85,0,1,0,0-1.7H1.69V7H41.63Zm0-20.51H1.69v-1A2.59,2.59,0,0,1,4.28,1.69H39a2.59,2.59,0,0,1,2.59,2.59Z"/><path class="cls-1" d="M9.29,13.94a2.21,2.21,0,0,0,2.05-1.37h7.73v.91a.79.79,0,0,0,.13.45l-2.44,1.41a1.37,1.37,0,0,0-.68,1.18v4.87a1.36,1.36,0,0,0,.68,1.18L21,25a1.37,1.37,0,0,0,1.36,0l4.22-2.44a1.36,1.36,0,0,0,.68-1.18V16.52a1.37,1.37,0,0,0-.68-1.18l-2.44-1.41a.8.8,0,0,0,.14-.45v-.91H32a2.22,2.22,0,1,0,0-1.69H24.26V10a.85.85,0,0,0-.85-.85h-3.5a.84.84,0,0,0-.84.85v.9H11.34a2.22,2.22,0,1,0-2.05,3.06ZM34,11.2a.52.52,0,0,1,.52.53.52.52,0,0,1-.52.52.52.52,0,0,1-.53-.52A.53.53,0,0,1,34,11.2ZM20.81,23l-3-1.76V17.62l3,1.58Zm4.74-1.76-3,1.76V19.2l3-1.58ZM20.76,10.82h1.8v1.81h-1.8Zm.9,3.65,3,1.71-3,1.56-3-1.56ZM9.29,11.2a.53.53,0,0,1,.53.53.52.52,0,0,1-.53.52.52.52,0,0,1-.52-.52A.52.52,0,0,1,9.29,11.2Z"/><path class="cls-1" d="M33.69,25.83h0a.85.85,0,1,0,.85.85A.85.85,0,0,0,33.69,25.83Z"/></g></g></svg>