<svg xmlns="http://www.w3.org/2000/svg" viewBox="0 0 95.46 95.46"><defs><style>.cls-1{fill:#66402c;}</style></defs><title>Fichier 13</title><g id="Calque_2" data-name="Calque 2"><g id="content"><path class="cls-1" d="M0,0V25.77H69.69V95.46H95.46V0ZM2.54,23.23V2.54h12V8.35h2.54V2.54h9.07v8.71h2.54V2.54h9.08V8.35h2.54V2.54h9.07v8.71h2.55V2.54H61V8.35h2.54V2.54h27.6L70.43,23.23Zm90.38,8.71H87.11v2.54h5.81v9.08H84.21V46.1h8.71v9.07H87.11v2.54h5.81v9.08H84.21v2.54h8.71V78.4H87.11v2.54h5.81v12H72.23V25L92.92,4.34Z"/><polygon class="cls-1" points="55.17 87.11 10.15 87.11 50.38 46.88 48.58 45.08 8.35 85.32 8.35 40.29 14.16 40.29 14.16 37.75 0 37.75 0 40.29 5.81 40.29 5.81 89.66 55.17 89.66 55.17 95.46 57.71 95.46 57.71 81.31 55.17 81.31 55.17 87.11"/></g></g></svg>