<svg xmlns="http://www.w3.org/2000/svg" viewBox="0 0 116.39 123.67"><defs><style>.cls-1{fill:#66402c;}</style></defs><title>Fichier 12</title><g id="Calque_2" data-name="Calque 2"><g id="content"><path class="cls-1" d="M71.16,0,0,41.09V96.14l47.68,27.53L116.39,84V29.08ZM46.38,119.93l-.17-.11L3.89,95.39l.4-.23L3,92.92l-.41.23v-49l.18.1L45.08,68.71l-.4.23L46,71.18l.4-.23Zm1.24-52.75L3.8,41.88l.17-.1L70.09,3.61V7.39h2.59V4.05l.18.12,39.75,25.56-.17.09L71,53.76h-.89v.52l-.06,0L47.68,67.22Zm66.18,15-.38.58L49,119.93V69.46l.06,0L71,56.72l2.83,1.81,1.39-2.19-1.69-1.08.17-.09L113.8,32Z"/><rect class="cls-1" x="7.7" y="88.79" width="5.62" height="2.59" transform="translate(-43.53 17.25) rotate(-29.92)"/><rect class="cls-1" x="17.02" y="83.44" width="5.62" height="2.59" transform="translate(-39.58 21.15) rotate(-29.89)"/><rect class="cls-1" x="26.33" y="78.08" width="5.62" height="2.59" transform="translate(-35.7 25.11) rotate(-29.92)"/><rect class="cls-1" x="35.64" y="72.72" width="5.62" height="2.59" transform="translate(-31.79 29.04) rotate(-29.92)"/><rect class="cls-1" x="70.09" y="43.4" width="2.59" height="5.41"/><rect class="cls-1" x="105.93" y="75.52" width="2.59" height="5.41" transform="translate(-16.35 126.68) rotate(-57.52)"/><rect class="cls-1" x="70.09" y="22.69" width="2.59" height="5.41"/><rect class="cls-1" x="79.71" y="58.84" width="2.59" height="5.41" transform="translate(-14.41 96.83) rotate(-57.52)"/><rect class="cls-1" x="97.19" y="69.96" width="2.59" height="5.41" transform="translate(-15.71 116.72) rotate(-57.52)"/><rect class="cls-1" x="70.09" y="12.33" width="2.59" height="5.41"/><rect class="cls-1" x="70.09" y="33.05" width="2.59" height="5.41"/><rect class="cls-1" x="88.45" y="64.4" width="2.59" height="5.41" transform="translate(-15.06 106.78) rotate(-57.52)"/></g></g></svg>