<svg xmlns="http://www.w3.org/2000/svg" viewBox="0 0 102.44 72"><defs><style>.cls-1{fill:#00945c;}</style></defs><title>Fichier 16</title><g id="Calque_2" data-name="Calque 2"><g id="content"><path class="cls-1" d="M101.35,61h-6V24.29a1.09,1.09,0,1,0-2.18,0V61H88.57V51.14a1.09,1.09,0,1,0-2.18,0V61H60.53a1.09,1.09,0,0,0-1.09,1.09v1.17a1,1,0,0,1-1,1H39.89a1,1,0,0,1-1-1V62.06A1.09,1.09,0,0,0,37.85,61H16V9H86.39v36.1a1.09,1.09,0,0,0,2.18,0V7.89A1.09,1.09,0,0,0,87.48,6.8H15a1.09,1.09,0,0,0-1.09,1.09V61H9.24V6.91A4.73,4.73,0,0,1,14,2.18H88.46a4.73,4.73,0,0,1,4.73,4.73V18.23a1.09,1.09,0,0,0,2.18,0V6.91A6.92,6.92,0,0,0,88.47,0H14A6.92,6.92,0,0,0,7.06,6.91V61h-6A1.09,1.09,0,0,0,0,62.06v4.61A5.33,5.33,0,0,0,5.33,72H97.11a5.33,5.33,0,0,0,5.33-5.33V62.06A1.09,1.09,0,0,0,101.35,61Zm-1.09,5.7a3.15,3.15,0,0,1-3.15,3.15H5.33a3.15,3.15,0,0,1-3.15-3.15V63.15H36.74l0,.38a3.1,3.1,0,0,0,3.11,2.83H58.48a3.12,3.12,0,0,0,3.12-2.83l0-.38h38.62Z"/><path class="cls-1" d="M43,48.18a1.45,1.45,0,0,0-.29,0,1.12,1.12,0,0,0-.66.51,1.08,1.08,0,0,0,.4,1.48A17.61,17.61,0,1,0,37.55,46a1.08,1.08,0,0,0,1.53.16,1.09,1.09,0,0,0,.16-1.52A15.24,15.24,0,0,1,35.82,35a15.4,15.4,0,1,1,7.72,13.35A1.08,1.08,0,0,0,43,48.18Z"/><path class="cls-1" d="M48.42,43.13l9.89-7.28a1.08,1.08,0,0,0,.45-.87,1.1,1.1,0,0,0-.45-.88l-9.89-7.28a1.09,1.09,0,0,0-.64-.21,1.11,1.11,0,0,0-.5.12,1.07,1.07,0,0,0-.59,1V42.26a1.1,1.1,0,0,0,.59,1A1.11,1.11,0,0,0,48.42,43.13Zm.44-13.29,7,5.14-7,5.13Z"/></g></g></svg>