<svg xmlns="http://www.w3.org/2000/svg" viewBox="0 0 24.91 18"><defs><style>.cls-1{fill:#66402c;}</style></defs><title>Fichier 7</title><g id="Calque_2" data-name="Calque 2"><g id="header"><polygon class="cls-1" points="9.97 12.94 16.78 9 9.97 5.06 9.97 12.94"/><path class="cls-1" d="M24.45,3.28A3.85,3.85,0,0,0,21.74.58C19.88.07,13.21,0,12.46,0h0C11.69,0,5,.07,3.17.55h0A3.91,3.91,0,0,0,.46,3.28h0A29.15,29.15,0,0,0,0,9a28.8,28.8,0,0,0,.46,5.7,3.86,3.86,0,0,0,2.71,2.71c1.88.5,8.53.56,9.28.57h0c.75,0,7.41-.07,9.27-.55h0a3.87,3.87,0,0,0,2.71-2.7h0a28.67,28.67,0,0,0,.46-5.68A27.85,27.85,0,0,0,24.45,3.28Zm-1.88,11a1.89,1.89,0,0,1-1.34,1.33,65.33,65.33,0,0,1-8.78.49,65.62,65.62,0,0,1-8.78-.5,1.91,1.91,0,0,1-1.33-1.34A25.45,25.45,0,0,1,2,9V9a28,28,0,0,1,.39-5.22A2,2,0,0,1,3.67,2.43,67.44,67.44,0,0,1,12.45,2a65.22,65.22,0,0,1,8.78.5,1.93,1.93,0,0,1,1.34,1.34h0A25.4,25.4,0,0,1,23,9v0A26.35,26.35,0,0,1,22.57,14.23Z"/></g></g></svg>