<svg xmlns="http://www.w3.org/2000/svg" viewBox="0 0 77.59 81"><defs><style>.cls-1{fill:#00945c;}</style></defs><title>Fichier 23</title><g id="Calque_2" data-name="Calque 2"><g id="content"><path class="cls-1" d="M77.41,73.62l-1-2.84a3.25,3.25,0,0,0-5.33-1.27l-1.61,1.58a3.15,3.15,0,0,0-.85,1.41l-.81,2.76a3.3,3.3,0,0,0,.51,2.85l1.19,1.58A3.19,3.19,0,0,0,72.11,81a3.05,3.05,0,0,0,.67-.07,3.21,3.21,0,0,0,2.5-2.43l.06-.24a.56.56,0,0,1,.19-.31l1-.83A3.25,3.25,0,0,0,77.41,73.62Zm-2.67,1.51-.95.83a3.29,3.29,0,0,0-1,1.7l0,.24a.61.61,0,0,1-1.08.22l-1.18-1.59a.59.59,0,0,1-.1-.53l.81-2.76a.72.72,0,0,1,.15-.27l1.62-1.57a.59.59,0,0,1,.42-.18l.14,0a.6.6,0,0,1,.44.39l1,2.85h0A.6.6,0,0,1,74.74,75.13Z"/><path class="cls-1" d="M70.27,65.42l.57-.73a4.37,4.37,0,0,0,1-3.35,4.46,4.46,0,0,0-1.78-3l-1.59-1.15a.94.94,0,0,1-.36-.55l-.69-3.23a.91.91,0,0,1,.45-1A3.54,3.54,0,0,0,69,47.27a4.36,4.36,0,0,0-.32-.46c-.35-.45-.49-.68-.44-1.05l.21-1.39a3.06,3.06,0,0,0-.78-2.55,3.1,3.1,0,0,0-2.48-1,.43.43,0,0,1-.41-.19.44.44,0,0,1,0-.45l3-6.65a1.46,1.46,0,0,1,1.42-.9A4.13,4.13,0,0,0,73.4,28.8l.4-5.15A1.29,1.29,0,0,1,74,23l0,0a4,4,0,0,0-2.18-6.23l-4.39-1.08a1.28,1.28,0,0,1-.65-.39l-2-2.21a3.92,3.92,0,0,0-2.21-1.23l-1.21-.22A11.15,11.15,0,0,1,57,10.26l-1.08-.65-1.2-.72A8.68,8.68,0,0,1,52.48,7.1L49.62,3.88A11.88,11.88,0,0,0,41,0H39.28a3,3,0,0,0-3,2.63l-.5,4A2,2,0,0,1,34,8.33l-.17,0c-1.91.2-3.28.35-4.87,2l-.16.17a1,1,0,0,0-.19.27,1.58,1.58,0,0,1-2.07.69l-5-2.36a3.82,3.82,0,0,0-4.2.74,3.77,3.77,0,0,0-1.08,4.05L17.4,17a.37.37,0,0,1-.08.38.36.36,0,0,1-.38.1l-3.51-1.07-2.19-.67c-1.76-.52-2.11-.62-2.82-.48l-4.66.89A4.6,4.6,0,0,0,.13,19.67a4,4,0,0,0-.13,1,4.71,4.71,0,0,0,0,.53,4.45,4.45,0,0,0,.48,1.58.39.39,0,0,0,.06.11c0,.05.05.11.08.17s.14.3.23.46.16.28.26.43a5.27,5.27,0,0,0,.78.91,5.3,5.3,0,0,0,.57.43,5.58,5.58,0,0,0,.69.36l5.93,2.52A7.07,7.07,0,0,1,13,32.37l0,.09a9.6,9.6,0,0,0,1.82,3.26l2.5,2.93a3.81,3.81,0,0,1,.56,4.06c-1,2.2-1.19,5-1.33,7.56l0,.36c-.05.79-.1,1.62-.19,2.35A22.13,22.13,0,0,1,14,60.33a6.51,6.51,0,0,0-.36,5,7.17,7.17,0,0,0,3.72,4.1l7,3.44a3,3,0,0,0,4.07-1.45.39.39,0,0,1,.27-.21.39.39,0,0,1,.3.07l4.64,4.19,0,0h0a3.6,3.6,0,0,0,.9.59,6.45,6.45,0,0,0,2,.55,16.37,16.37,0,0,0,2,.15l.92,0c.53,0,1,0,1.42.06h.32a3.55,3.55,0,0,0,3.52-4,3.6,3.6,0,0,1,.94-3,3.87,3.87,0,0,1,.87-.7l.79-.48c1.84-1.12,3.05-1.76,4.44-1.24l1.89.71L58.1,70c2,.76,4.14.24,6-.21l1-.25C67.51,69,69,67.08,70.27,65.42Zm-5.74,1.5-1.07.26c-1.55.38-3.16.78-4.41.31l-4.54-1.7-1.88-.71c-2.7-1-4.94.36-6.74,1.47l-.78.47A6.28,6.28,0,0,0,42,73.27a.92.92,0,0,1-.24.75,1,1,0,0,1-.74.27c-.48,0-1-.05-1.61-.06l-.89,0a13.17,13.17,0,0,1-1.66-.13,4,4,0,0,1-1.19-.31,1.44,1.44,0,0,1-.27-.17s0,0,0,0l-4.55-4.1-.08-.08a3,3,0,0,0-4.75,1,.36.36,0,0,1-.21.2.38.38,0,0,1-.29,0l-7-3.44a4.56,4.56,0,0,1-2.4-2.58,4,4,0,0,1,.22-3A24.57,24.57,0,0,0,19,53.29c.1-.81.15-1.68.2-2.5l0-.37c.14-2.39.27-4.86,1.09-6.6a6.45,6.45,0,0,0-.94-6.89L16.84,34a6.94,6.94,0,0,1-1.33-2.37h0a9.65,9.65,0,0,0-5.36-5.85L4.21,23.26a1.43,1.43,0,0,1-.3-.16,1.37,1.37,0,0,1-.23-.17,2,2,0,0,1-.35-.4l-.13-.22c-.07-.13-.12-.24-.17-.34s-.13-.28-.19-.38A1.88,1.88,0,0,1,2.65,21a1.85,1.85,0,0,1,0-.23,1.73,1.73,0,0,1,0-.45,2,2,0,0,1,1.56-1.49l4.66-.91c.19,0,1.12.3,1.57.44l2.18.66L16.18,20a3,3,0,0,0,3.69-3.91L18.72,13a1.14,1.14,0,0,1,.4-1.2,1.22,1.22,0,0,1,1.26-.31l.09,0,5,2.34a4.22,4.22,0,0,0,5.42-1.68l0,0c.88-.92,1.52-1,3.22-1.17l.17,0a4.62,4.62,0,0,0,4.11-4l.49-4a.37.37,0,0,1,.37-.32H41a9.28,9.28,0,0,1,6.68,3L50.5,8.85a11.49,11.49,0,0,0,2.86,2.29l1.23.74,1.07.64A13.44,13.44,0,0,0,61,14.2l1.19.21a1.3,1.3,0,0,1,.74.41l2,2.21a4,4,0,0,0,2,1.18l4.38,1.08A1.32,1.32,0,0,1,72,21.36h0a4.14,4.14,0,0,0-.8,2.09l-.4,5.15A1.51,1.51,0,0,1,69.22,30a4.19,4.19,0,0,0-3.9,2.46l-3,6.65a3.1,3.1,0,0,0,3,4.35.43.43,0,0,1,.37.14.47.47,0,0,1,.11.38l-.2,1.39a3.85,3.85,0,0,0,.95,3.05,2.39,2.39,0,0,1,.16.22l.08.12a.92.92,0,0,1,.15.74.94.94,0,0,1-.46.6A3.57,3.57,0,0,0,64.79,54l.7,3.24a3.51,3.51,0,0,0,1.38,2.12l1.59,1.15A1.77,1.77,0,0,1,68.79,63l-.6.77C67.12,65.17,66,66.59,64.53,66.92Z"/></g></g></svg>