<svg xmlns="http://www.w3.org/2000/svg" viewBox="0 0 45.75 45.75"><defs><style>.cls-1{fill:#00945c;}</style></defs><title>Fichier 30</title><g id="Calque_2" data-name="Calque 2"><g id="footer"><path class="cls-1" d="M43.46,30.5a5.83,5.83,0,0,0-2.31-1L39,29l-.28-1.1.07-.05a4.34,4.34,0,0,0,1.66-2.41v0l.4-.39a6.28,6.28,0,0,0,2-4.57,5.59,5.59,0,0,0-1.45-3.76l0,0V16.2a4.35,4.35,0,0,0-2.82-4l-.19-.07.14-.14a4.31,4.31,0,0,0,1.15-1.77l0-.07h.07A3.58,3.58,0,0,0,39.2,3a3.53,3.53,0,0,0-2.91,1.49l0,.06h-.08a4.29,4.29,0,0,0-5,4.27,4.29,4.29,0,0,0,1.38,3.16l.15.14-.19.07a4.28,4.28,0,0,0-2.26,1.93l-.1.17L30,14.09a8.88,8.88,0,0,0-1.3-1.45l0,0v-.85a4.33,4.33,0,0,0-2.83-4l-.19-.07.15-.14a4.33,4.33,0,1,0-5.89,0l.15.14-.19.07a4.33,4.33,0,0,0-2.83,4.05v.85l0,0a9.37,9.37,0,0,0-1.3,1.45l-.11.16-.1-.17a4.35,4.35,0,0,0-2.26-1.94l-.19-.07.15-.13a4.28,4.28,0,0,0,1.38-3.16,4.33,4.33,0,1,0-7.27,3.16l.14.13-.19.08a4.28,4.28,0,0,0-2.58,2.66l0,.07-.07,0a2.11,2.11,0,0,0-1.63,2v3.53a6.28,6.28,0,0,0,2,4.57l.4.39v0A4.4,4.4,0,0,0,7,27.87l.07.05L6.79,29l-2.19.44a5.83,5.83,0,0,0-2.31,1A5.74,5.74,0,0,0,0,35.07V45.75H45.75V35.07A5.74,5.74,0,0,0,43.46,30.5Zm-3.26,0L39.43,32l-2-1,1.13-.75ZM38.85,33,38,34.64,37.64,34l.43-1.31Zm-5-2.83L35,31l-1,.49L34,31.36a8.5,8.5,0,0,0-.67-.84l-.15-.17ZM32,29.33l0,0-.13-.08-.13-.08V25.06l.39.37v0a4.4,4.4,0,0,0,1.66,2.41l.07.05L33.5,29Zm4.28,2.4.73.36-.43,1.3H35l0-.09c-.08-.22-.17-.44-.26-.66l-.05-.11Zm0-1.44-1.52-1,.2-.8.12,0a4.26,4.26,0,0,0,2.4,0l.12,0,.2.8Zm3.09-5.93a3.09,3.09,0,0,1-6.18,0V23a2.34,2.34,0,0,1,1.78-2.28l.13,0,.05.05a3,3,0,0,0,1.76.87l1.72.25a.87.87,0,0,1,.74.86Zm2.23-3.89a5.17,5.17,0,0,1-.26,1.61,5.28,5.28,0,0,1-.5,1.05l-.23.38v-.83a2.12,2.12,0,0,0-1.81-2.08L37,20.35a2,2,0,0,1-1.67-1.8H34.13a3.05,3.05,0,0,0,.17.9l0,.12-.11,0A3.61,3.61,0,0,0,31.9,23h-.25v-3.8a8.61,8.61,0,0,0-.06-1v0l0,0a4.39,4.39,0,0,1,3.69-2h1.86A4.4,4.4,0,0,1,41.55,20.47Zm-7.67-7.24v-.12H37.1v.12a1.61,1.61,0,0,1-3.22,0Zm4.41.37,0-.18.16.09a3.13,3.13,0,0,1,1.45,1.82l.08.28-.26-.13A5.43,5.43,0,0,0,38,14.91l-.19,0,.1-.16A2.73,2.73,0,0,0,38.29,13.6Zm-.68-8.77A2.3,2.3,0,0,1,39.2,4.2a2.36,2.36,0,0,1,2.35,2.35A2.32,2.32,0,0,1,40,8.75l-.16.06V8.64A4.28,4.28,0,0,0,37.63,5l-.15-.09Zm-4.78,2.4a3.09,3.09,0,0,1,2.66-1.54,3,3,0,0,1,2.66,1.54l.11.19H32.72ZM32.4,8.78V8.65h6.18v.13a3.09,3.09,0,1,1-6.18,0ZM31,15.7a3,3,0,0,1,1.54-2.2l.16-.09,0,.19A2.84,2.84,0,0,0,33.31,15l.11.13-.16.06a5.61,5.61,0,0,0-1.86,1.2l-.15.13-.06-.18a6.09,6.09,0,0,0-.22-.61V15.7ZM25.68,9.15l0-.18.16.09a3.07,3.07,0,0,1,1.56,2.38l0,.24-.22-.12a8.81,8.81,0,0,0-2.05-.86l-.18,0,.11-.15A2.8,2.8,0,0,0,25.68,9.15ZM20.21,2.78a3.07,3.07,0,0,1,5.33,0l.11.19H20.1Zm-.43,1.55V4.2H26v.13a3.1,3.1,0,0,1-6.19,0Zm4.7,4.32v.13a1.61,1.61,0,1,1-3.21,0V8.65Zm-6.15,2.79a3.07,3.07,0,0,1,1.56-2.38L20.05,9l0,.18a2.8,2.8,0,0,0,.57,1.36l.11.15-.18,0a8.81,8.81,0,0,0-2.05.86l-.22.12Zm-3,7.73a7.55,7.55,0,1,1,15.09,0V28.5l-.17-.07a8.39,8.39,0,0,0-1.7-.45l-1.47-.23a1.62,1.62,0,0,1-1.3-1.16l0-.09.09-.05a5.69,5.69,0,0,0,2.85-4.9V17.92L27.1,17.6a5.83,5.83,0,0,1-3.59-2.31l0,0V13.36H22.26v1.89l0,0a5.81,5.81,0,0,1-3.58,2.31l-1.59.32v3.47a5.83,5.83,0,0,0,2.87,5l.08.05,0,.09a1.6,1.6,0,0,1-1.32,1.23L17.2,28a7.79,7.79,0,0,0-1.7.45l-.17.07Zm5.79,7.88,0-.12.11,0a6.11,6.11,0,0,0,1.63.23H23a5.7,5.7,0,0,0,1.46-.2l.11,0,0,.11a2.81,2.81,0,0,0,2.08,1.85l.17,0L25.3,31.9H20.45l0-.06L18.86,29l.17,0A2.81,2.81,0,0,0,21.12,27.05ZM18.3,21.39V18.93l.59-.12a6.92,6.92,0,0,0,3.89-2.23l.1-.1.09.1a6.92,6.92,0,0,0,3.89,2.23l.59.12v2.62A4.43,4.43,0,0,1,23,26H22.9A4.6,4.6,0,0,1,18.3,21.39ZM13.07,13.6l0-.19.16.09a3,3,0,0,1,1.54,2.2v.07a2.09,2.09,0,0,0-.08.23l-.06.15-.06.17-.14-.12a5.05,5.05,0,0,0-1.84-1.09l-.17-.06.11-.13A3,3,0,0,0,13.07,13.6ZM7.6,7.23a3.08,3.08,0,0,1,5.33,0l.11.19H7.49ZM7.17,8.78V8.65h6.19v.13a3.1,3.1,0,0,1-6.19,0Zm4.7,4.33v.12a1.61,1.61,0,0,1-3.22,0v-.12ZM6.11,14.65A3.12,3.12,0,0,1,7.27,13.5l.16-.09,0,.18a2.78,2.78,0,0,0,.36,1.06l.11.19H6Zm-.92,8v.83L5,23.13a4.88,4.88,0,0,1-.5-1.06,5.06,5.06,0,0,1-.26-1.6V16.94a.87.87,0,0,1,.87-.87H11a3.81,3.81,0,0,1,3.18,1.71l0,0v.05a9.1,9.1,0,0,0-.1,1.3V23h-.25a3.61,3.61,0,0,0-2.33-3.36l-.11,0,0-.12a3.05,3.05,0,0,0,.17-.9H10.38a2,2,0,0,1-1.67,1.8L7,20.6A2.12,2.12,0,0,0,5.19,22.68Zm4.33,9.05,1.61.8-.05.11c-.09.22-.18.44-.26.66l0,.09H9.44V34l-.65-1.94ZM8,29.28l.2-.8.12,0a4.26,4.26,0,0,0,2.4,0l.12,0,.2.8-1.52,1ZM10.75,31l1.13-.75.73.14-.15.17a8.5,8.5,0,0,0-.67.84l-.06.09ZM12.25,29,12,27.92l.07-.05a4.38,4.38,0,0,0,1.66-2.41v0l.39-.38v4.09l-.13.08-.13.08,0,0h-.05ZM6.43,24.36V22.68a.87.87,0,0,1,.74-.86l1.72-.25a3.07,3.07,0,0,0,1.76-.87l0-.05.13,0A2.34,2.34,0,0,1,12.61,23v1.39a3.09,3.09,0,1,1-6.18,0Zm.74,5.85L8.29,31l-2,1-.77-1.42ZM8.11,34l-.34.68L6.9,33l.78-.39ZM8.9,44.52H4.2V36.36H3v8.16H1.23V35.07A4.53,4.53,0,0,1,3,31.48a4.59,4.59,0,0,1,1.18-.63l.1,0,.05.09L8.9,39.39ZM8.49,36l.67-1.35H10.5l0,.14a8.17,8.17,0,0,0-.09,1.16l0,.39L9.52,37.9Zm3.38,8.55H10.14V39.33l.27-.5.11.21a1.34,1.34,0,0,0,1.22.77h.12Zm4.45,0H13.11V39.81h2l0,.1a10,10,0,0,0,.33,1l.84,2.13Zm5.94,0h-4.7V42.79l-.93-2.33a7.6,7.6,0,0,1-.56-2.87,7.81,7.81,0,0,1,.4-2.45l.27-.82-1.17-.39-.27.82a8.85,8.85,0,0,0-.46,2.84,8.19,8.19,0,0,0,0,.85v.14H11.62V35.92a6.78,6.78,0,0,1,5.77-6.73l.18,0,0,.07,4.65,8.66ZM21.11,33.14h3.53l-1.76,3.27Zm7.08,9.65v1.73h-4.7l0-6.68,4.67-8.67.18,0a6.76,6.76,0,0,1,5.77,6.72v2.66H30.86v-.14a8.19,8.19,0,0,0,0-.85,8.85,8.85,0,0,0-.46-2.84l-.27-.82L29,34.32l.27.82a7.81,7.81,0,0,1,.4,2.45,7.64,7.64,0,0,1-.56,2.87Zm4.46,1.73H29.43V43l.83-2.08a9.25,9.25,0,0,0,.33-1l0-.1h2Zm3,0H33.88V39.81H34A1.33,1.33,0,0,0,35.22,39l.11-.21.28.55Zm-.25-8.27v-.33a8.17,8.17,0,0,0-.09-1.16l0-.14h1.34L37.27,36l0,.06-1,1.87Zm9.16,8.27H42.78V36.36H41.55v8.16h-4.7V39.33l4.58-8.51.1,0a4.28,4.28,0,0,1,1.18.62,4.51,4.51,0,0,1,1.8,3.59Z"/><path class="cls-1" d="M25.57,22.57l0-.05L24.49,22l0,0a1.78,1.78,0,0,1-3.19,0l0,0-1.11.55,0,0a3,3,0,0,0,5.39,0Z"/></g></g></svg>