<svg xmlns="http://www.w3.org/2000/svg" viewBox="0 0 18.25 18.25"><defs><style>.cls-1{fill:#66402c;}</style></defs><title>Fichier 6</title><g id="Calque_2" data-name="Calque 2"><g id="header"><path class="cls-1" d="M12.76,0H5.49A5.49,5.49,0,0,0,0,5.49v7.27a5.49,5.49,0,0,0,5.49,5.49h7.27a5.49,5.49,0,0,0,5.49-5.49V5.49A5.49,5.49,0,0,0,12.76,0Zm3.43,12.76a3.44,3.44,0,0,1-3.43,3.43H5.49a3.44,3.44,0,0,1-3.43-3.43V5.49A3.44,3.44,0,0,1,5.49,2.06h7.27a3.44,3.44,0,0,1,3.43,3.43Z"/><path class="cls-1" d="M9.13,4.34a4.79,4.79,0,1,0,4.78,4.79A4.8,4.8,0,0,0,9.13,4.34Zm0,7.5a2.72,2.72,0,1,1,2.71-2.71A2.72,2.72,0,0,1,9.13,11.84Z"/><circle class="cls-1" cx="13.79" cy="4.5" r="1.12"/></g></g></svg>