<svg xmlns="http://www.w3.org/2000/svg" viewBox="0 0 80.85 53"><defs><style>.cls-1{fill:#00945c;}</style></defs><title>Fichier 25</title><g id="Calque_2" data-name="Calque 2"><g id="content"><path class="cls-1" d="M79.76,10.2,73.29,1.92A5.09,5.09,0,0,0,69.24,0,4.94,4.94,0,0,0,66.6.74L60.29,4.67a6.23,6.23,0,0,1-3.08.77h-.08A5.46,5.46,0,0,1,54.76,5L48.58,2a7,7,0,0,0-3-.63,7.61,7.61,0,0,0-4.3,1.23l-.92.65L37.64,1.87a8.79,8.79,0,0,0-3.84-.78,9.12,9.12,0,0,0-3.53.64l-4.21,1.8a8.56,8.56,0,0,1-3,.52,9.41,9.41,0,0,1-3-.52L15.8,1.73A6.46,6.46,0,0,0,11,1.8,5.77,5.77,0,0,0,8.84,3.28L1.16,11.87a4.56,4.56,0,0,0,.45,6.52l7.5,6.4L5.4,28.65a4.64,4.64,0,0,0,.16,6.56l.69.66A4.54,4.54,0,0,0,8.31,37l.52.14-.26.47a4.57,4.57,0,0,0,.87,5.57l.81.77a4.67,4.67,0,0,0,3.09,1.16h0a4.73,4.73,0,0,0,1.82-.36l.46-.19.11.48A4.59,4.59,0,0,0,17,47.26l.69.66a4.69,4.69,0,0,0,3.22,1.28h0a4.66,4.66,0,0,0,2.58-.78l.47-.31.17.53a4.57,4.57,0,0,0,1.21,2l.69.65a4.63,4.63,0,0,0,3.22,1.28h0a4.69,4.69,0,0,0,3.38-1.43L36,47.7l4.38,4.06A4.64,4.64,0,0,0,43.51,53h0a4.68,4.68,0,0,0,3.41-1.48l.65-.7a4.53,4.53,0,0,0,1-1.89l.19-.66L50.9,50.2a4.7,4.7,0,0,0,3.17,1.23h0A4.67,4.67,0,0,0,57.51,50l.64-.69a4.61,4.61,0,0,0,1.19-2.57l.06-.47.46.12a4.85,4.85,0,0,0,1.16.17A4.71,4.71,0,0,0,64.45,45l.65-.7a4.62,4.62,0,0,0,1.24-3.16,4.54,4.54,0,0,0-.13-1l-.1-.45.46-.06a4.64,4.64,0,0,0,2.8-1.42l.65-.7a4.65,4.65,0,0,0-.24-6.56l-1.53-1.41,3.46-3.82a1.12,1.12,0,0,0,.1-1.63.84.84,0,0,0-.66-.26,1.43,1.43,0,0,0-.85.57l-3.46,3.83-5.29-4.88a71.08,71.08,0,0,0-5.81-4.74l-7.1-5.09a6.63,6.63,0,0,0-3.89-1.15,6.55,6.55,0,0,0-3.35.86l-2.56,1.54a3.49,3.49,0,0,1-1.57.41A3.14,3.14,0,0,1,34.74,14l-.57-.76a2.7,2.7,0,0,1-.53-1.57,2.65,2.65,0,0,1,1.13-2.16l7.59-5.34a5.77,5.77,0,0,1,3.18-.87h0a5.18,5.18,0,0,1,2.17.44l6.17,3a7.56,7.56,0,0,0,3.26.68,8,8,0,0,0,4.15-1.07l6.31-3.92a3.07,3.07,0,0,1,1.62-.45A3.2,3.2,0,0,1,71.77,3.1l6.47,8.28a3.45,3.45,0,0,1,.68,2.1,3.54,3.54,0,0,1-.84,2.32L75.4,18.57a1.11,1.11,0,0,0,0,1.61.81.81,0,0,0,.66.22,1.42,1.42,0,0,0,.82-.62l.06-.07,2.56-2.64a5.34,5.34,0,0,0,1.33-3.6A5.26,5.26,0,0,0,79.76,10.2Zm-70.29,25h0a2.71,2.71,0,0,1-1.88-.75l-.69-.65a2.69,2.69,0,0,1-.85-2A2.74,2.74,0,0,1,6.8,30l7-7.25a2.84,2.84,0,0,1,3.87-.1l.75.73a4.55,4.55,0,0,1,.79,1.9,2.85,2.85,0,0,1-.49,1.55l-7.55,7.87a2.74,2.74,0,0,1-1.65.56Zm5.86,7.11a2.78,2.78,0,0,1-3.87.09l-.69-.66a2.71,2.71,0,0,1-.84-2,2.66,2.66,0,0,1,.75-1.88L20,28.19a2.8,2.8,0,0,1,3.81-.05l.69.66a2.7,2.7,0,0,1,.84,2,2.74,2.74,0,0,1-.75,1.88Zm7.6,4.1a2.72,2.72,0,0,1-2,.84,2.75,2.75,0,0,1-1.89-.75l-.69-.66a2.69,2.69,0,0,1-.24-3.67l6.48-6.76a2.77,2.77,0,0,1,3.73,0l.7.66A2.73,2.73,0,0,1,29.13,40Zm12.26-.71-3.92,4.08a2.7,2.7,0,0,1-2,.84,2.73,2.73,0,0,1-1.88-.74l-.69-.66a2.72,2.72,0,0,1-.1-3.85l3.92-4.09a2.82,2.82,0,0,1,3.87-.09l.69.65a2.74,2.74,0,0,1,.09,3.86ZM33.66,7.9a4.53,4.53,0,0,0-1,6.43l.57.77a5.16,5.16,0,0,0,4.09,2,4.92,4.92,0,0,0,2.56-.7l2.57-1.54a4.47,4.47,0,0,1,2.35-.58,4.81,4.81,0,0,1,2.76.79l7.1,5.09a70.71,70.71,0,0,1,5.62,4.59l8.22,7.6a2.72,2.72,0,0,1,.14,3.85l-.65.7a2.76,2.76,0,0,1-3.86.14L53.46,27.21l-1.32,1.41,11.4,10.55A2.73,2.73,0,0,1,63.68,43l-.65.69a2.7,2.7,0,0,1-2,.87,2.74,2.74,0,0,1-1.86-.72L48.54,34l-1.31,1.41,9.39,8.68A2.72,2.72,0,0,1,56.74,48l-.65.69a2.71,2.71,0,0,1-2,.87,2.74,2.74,0,0,1-1.86-.73l-9.38-8.66-1.31,1.41,4.58,4.23a2.73,2.73,0,0,1,.79,1.9,2.68,2.68,0,0,1-.73,1.85l-.64.7a2.73,2.73,0,0,1-2,.86,2.78,2.78,0,0,1-1.86-.72l-4.45-4.13.14-.28a4.56,4.56,0,0,0-.91-5.46l-.7-.66a4.67,4.67,0,0,0-3.21-1.28h-.12l-.15,0-.45,0v-.54a9,9,0,0,0-1.48-3.38l-.66-.62a4.65,4.65,0,0,0-2.35-1.2l-.48-.09.16-.46a4.49,4.49,0,0,0,.28-1.54,4.67,4.67,0,0,0-1.44-3.36l-.69-.66a4.69,4.69,0,0,0-3.22-1.28l-.23,0-.62.06v-.45a4.62,4.62,0,0,0-1.43-3.21L19,21.24A4.67,4.67,0,0,0,15.75,20h0a4.67,4.67,0,0,0-3.38,1.44l-1.92,2L2.87,16.94a2.67,2.67,0,0,1-.26-3.79l7.67-8.59a4,4,0,0,1,1.44-1,5.11,5.11,0,0,1,1.84-.36,4.44,4.44,0,0,1,1.49.28l4.2,1.8A9.88,9.88,0,0,0,23,6a9.88,9.88,0,0,0,3.79-.67L31,3.5A7.61,7.61,0,0,1,33.8,3a7.42,7.42,0,0,1,3,.58l1.75.88Z"/></g></g></svg>