<svg xmlns="http://www.w3.org/2000/svg" viewBox="0 0 70.73 70"><defs><style>.cls-1{fill:#00945c;}</style></defs><title>Fichier 22</title><g id="Calque_2" data-name="Calque 2"><g id="content"><path class="cls-1" d="M70.58,52.72l-5.22-8.95a1.06,1.06,0,0,0-.92-.52H54a1.07,1.07,0,0,0-.92.52l-5.22,8.95a1,1,0,0,0,0,1.08l5.22,8.94a1.06,1.06,0,0,0,.92.53H64.44a1,1,0,0,0,.92-.53l5.22-8.94A1,1,0,0,0,70.58,52.72Zm-6.75,8.42H54.62L50,53.26l4.6-7.88h9.21l4.6,7.88Z"/><path class="cls-1" d="M59.22,47.63a5.54,5.54,0,1,0,5.54,5.54A5.54,5.54,0,0,0,59.22,47.63Zm0,8.95a3.41,3.41,0,1,1,3.41-3.41A3.41,3.41,0,0,1,59.22,56.58Z"/><path class="cls-1" d="M20.28,27a1.06,1.06,0,0,0,.92.53H31.64a1.07,1.07,0,0,0,.92-.53L37.78,18a1.09,1.09,0,0,0,0-1.08L32.56,8a1.07,1.07,0,0,0-.92-.53H21.2a1.06,1.06,0,0,0-.92.53l-5.22,8.94a1,1,0,0,0,0,1.08ZM21.81,9.59H31l4.6,7.88L31,25.35H21.81l-4.6-7.88Z"/><path class="cls-1" d="M26.42,22.92a5.54,5.54,0,1,0-5.54-5.54A5.55,5.55,0,0,0,26.42,22.92Zm0-9A3.41,3.41,0,1,1,23,17.38,3.41,3.41,0,0,1,26.42,14Z"/><path class="cls-1" d="M49.15,9.76l3,1.69L37.18,37.63l0,.1-2.22,3.89a1.06,1.06,0,0,0,.4,1.45l7.77,4.43a1.09,1.09,0,0,0,1.45-.39l17.2-30.17,3,1.69a1.1,1.1,0,0,0,1.46-.4l4.43-7.77a1,1,0,0,0,.1-.81,1.06,1.06,0,0,0-.5-.65L54.63.14a1.06,1.06,0,0,0-1.45.4L48.75,8.31a1,1,0,0,0-.1.81A1,1,0,0,0,49.15,9.76Zm9.57,8.16-.37-.21a1.06,1.06,0,1,0-1.05,1.85l.36.21-1.16,2-.37-.22a1.07,1.07,0,0,0-1.45.4,1,1,0,0,0-.1.81,1.06,1.06,0,0,0,.5.65l.37.21-1.16,2-.37-.21a1,1,0,0,0-.81-.1,1,1,0,0,0-.64.5,1.09,1.09,0,0,0-.11.81,1.11,1.11,0,0,0,.5.64l.38.21-1.17,2-.37-.21a1.06,1.06,0,0,0-1.45.4,1.07,1.07,0,0,0,.4,1.45l.37.21-1.16,2-.37-.21a1.06,1.06,0,0,0-1.45.4,1.05,1.05,0,0,0-.11.81,1,1,0,0,0,.5.64l.37.21-1.16,2-.37-.21A1.06,1.06,0,0,0,46.22,39l.37.21-1.17,2L45.06,41a1.07,1.07,0,0,0-1.46.39,1,1,0,0,0-.1.81,1.06,1.06,0,0,0,.5.65l.37.21-1.16,2-5.92-3.37,1.16-2,.37.21a1.09,1.09,0,0,0,1.45-.39,1,1,0,0,0,.1-.81,1,1,0,0,0-.5-.65l-.37-.21,1.16-2L41,36a1.1,1.1,0,0,0,1.46-.4,1.09,1.09,0,0,0,.1-.81,1.07,1.07,0,0,0-.5-.64L41.72,34l1.16-2,.37.21a1.09,1.09,0,0,0,1.45-.4,1.06,1.06,0,0,0-.39-1.45l-.37-.21,1.16-2,.37.21a1.08,1.08,0,0,0,1.45-.39,1,1,0,0,0,.1-.81,1,1,0,0,0-.5-.65l-.37-.21,1.16-2,.37.21a1.11,1.11,0,0,0,1.46-.4,1.06,1.06,0,0,0-.4-1.45l-.37-.21,1.16-2,.37.21a1.09,1.09,0,0,0,1.45-.4,1.06,1.06,0,0,0-.4-1.45l-.37-.21,1.16-2,.37.21a1.07,1.07,0,1,0,1.06-1.85l-.37-.21,1.16-2,5.92,3.37ZM54.5,2.52,60.43,5.9l-1,1.66A1.06,1.06,0,0,0,59.88,9a1.08,1.08,0,0,0,1.45-.39l1-1.67,5.92,3.38-3.38,5.92L51.13,8.44Z"/><path class="cls-1" d="M45.6,60.91,17.75,40.16l2-2.73a1.07,1.07,0,0,0,.2-.79,1,1,0,0,0-.42-.7l-7.18-5.35a1.06,1.06,0,0,0-1.49.22L.21,45.16A1.07,1.07,0,0,0,0,46a1.05,1.05,0,0,0,.42.7L7.6,52a1,1,0,0,0,.79.2,1.06,1.06,0,0,0,.7-.41l2-2.74L31.69,64.36l.11.08L39,69.79a1.08,1.08,0,0,0,.8.2,1.06,1.06,0,0,0,.69-.42l5.34-7.17a1.07,1.07,0,0,0,.2-.79,1.08,1.08,0,0,0-.41-.7ZM8,49.65,2.55,45.58l4.08-5.47,1.54,1.15A1.11,1.11,0,0,0,9.66,41a1.08,1.08,0,0,0-.22-1.5L7.9,38.4,12,32.94,17.44,37ZM39.4,67.45l-1.88-1.4.25-.34a1.08,1.08,0,0,0,.2-.8,1.09,1.09,0,0,0-1.21-.9,1.09,1.09,0,0,0-.7.42l-.25.34-1.88-1.4.25-.34a1.07,1.07,0,0,0,.2-.79,1.06,1.06,0,0,0-1.91-.48l-.25.34-1.88-1.4.26-.34a1.07,1.07,0,0,0-.22-1.49,1,1,0,0,0-.79-.2,1.05,1.05,0,0,0-.7.42l-.26.34L26.75,58l.26-.34a1.08,1.08,0,0,0-.22-1.5,1.07,1.07,0,0,0-1.49.22l-.25.34-1.88-1.4.25-.34a1.07,1.07,0,1,0-1.71-1.27l-.25.34-1.88-1.4.25-.34a1.07,1.07,0,0,0,.2-.79,1.05,1.05,0,0,0-.42-.7,1,1,0,0,0-.78-.2,1.07,1.07,0,0,0-.71.42l-.25.34L16,50l.26-.34a1.08,1.08,0,0,0-.22-1.5,1.06,1.06,0,0,0-.79-.19,1.08,1.08,0,0,0-.7.41l-.26.35L12.4,47.33l4.08-5.46,1.88,1.4-.26.34a1.07,1.07,0,0,0,.22,1.49,1.09,1.09,0,0,0,1.49-.22l.25-.34,1.88,1.4-.25.34a1.07,1.07,0,0,0-.2.79,1.05,1.05,0,0,0,.42.7,1.08,1.08,0,0,0,1.49-.21l.25-.35,1.88,1.41-.25.34a1.06,1.06,0,0,0,.21,1.49,1.11,1.11,0,0,0,1.41-.12v-.69l2.22,1.65-.26.34a1.07,1.07,0,0,0,.22,1.49,1.1,1.1,0,0,0,1.49-.22l.26-.34L32.7,54l-.25.34a1.07,1.07,0,0,0-.2.79,1.05,1.05,0,0,0,.42.7,1.08,1.08,0,0,0,1.49-.21l.25-.35,1.88,1.41L36,57a1,1,0,0,0-.2.79,1.08,1.08,0,0,0,.41.7,1.1,1.1,0,0,0,1.5-.22l.25-.34,1.88,1.4-.25.34a1.06,1.06,0,0,0,.21,1.49,1.09,1.09,0,0,0,1.49-.22l.26-.34L43.47,62Z"/></g></g></svg>