<svg xmlns="http://www.w3.org/2000/svg" viewBox="0 0 19.33 21.97"><defs><style>.cls-1{fill:#a66d4b;}</style></defs><title>Fichier 3</title><g id="Calque_2" data-name="Calque 2"><g id="header"><path class="cls-1" d="M9.67,10.55a5.19,5.19,0,0,0,5.27-5.28A5.18,5.18,0,0,0,9.67,0,5.18,5.18,0,0,0,4.39,5.27,5.19,5.19,0,0,0,9.67,10.55Zm0-8.79A3.52,3.52,0,1,1,6.15,5.27,3.52,3.52,0,0,1,9.67,1.76Z"/><path class="cls-1" d="M14.94,13.18H4.39A4.35,4.35,0,0,0,0,17.58v3.51A.83.83,0,0,0,.88,22a.83.83,0,0,0,.88-.88V17.58a2.7,2.7,0,0,1,2.63-2.64H14.94a2.7,2.7,0,0,1,2.64,2.64v3.51a.88.88,0,1,0,1.75,0V17.58A4.35,4.35,0,0,0,14.94,13.18Z"/></g></g></svg>