<svg xmlns="http://www.w3.org/2000/svg" viewBox="0 0 55.8 55.86"><defs><style>.cls-1{fill:#fff;}</style></defs><title>Fichier 28</title><g id="Calque_2" data-name="Calque 2"><g id="content"><path class="cls-1" d="M39.94,25l-8.16-4.72-8.1-4.67a3.21,3.21,0,0,0-2.47-.34,3.25,3.25,0,0,0-2,1.52,3,3,0,0,0-.34.79c-.06.16-.06.39-.11.61V37.58a3.31,3.31,0,0,0,.95,2.3,3.19,3.19,0,0,0,2.31,1,5.57,5.57,0,0,0,1.86-.62l8-4.61H32l.06-.06,8.26-4.78a3.21,3.21,0,0,0,1.52-2,1.91,1.91,0,0,0,.06-.61A4.27,4.27,0,0,0,39.94,25Zm-1.13,3.32-8.15,4.73a.22.22,0,0,0-.12.05l-8,4.61a1.06,1.06,0,0,1-.45.17.72.72,0,0,1-.34-.11.57.57,0,0,1-.11-.34V18.28a0,0,0,0,1,.05-.05.21.21,0,0,0,.06-.12c.05-.05.17-.11.22-.17h.29c0,.06.11.06.16.12l8,4.61a.17.17,0,0,0,.11.06h.06l8.16,4.72c.11.06.33.23.33.39A.66.66,0,0,1,38.81,28.35Z"/><path class="cls-1" d="M47.64,8.21A27.84,27.84,0,0,0,8.21,8.16,28.1,28.1,0,0,0,0,28,27.9,27.9,0,1,0,47.64,8.21Zm-2,37.46a25,25,0,0,1-35.43,0,25,25,0,0,1,0-35.43A25.09,25.09,0,0,1,53,28,24.71,24.71,0,0,1,45.67,45.67Z"/></g></g></svg>