<svg xmlns="http://www.w3.org/2000/svg" viewBox="0 0 26.4 21.45"><defs><style>.cls-1{fill:#e7e3de;}</style></defs><title>Fichier 40</title><g id="Calque_2" data-name="Calque 2"><g id="footer"><path class="cls-1" d="M26.4,2.54a11,11,0,0,1-3.12.85,5.33,5.33,0,0,0,2.38-3,10.48,10.48,0,0,1-3.43,1.31,5.41,5.41,0,0,0-9.36,3.7A5.55,5.55,0,0,0,13,6.65,15.34,15.34,0,0,1,1.84,1,5.41,5.41,0,0,0,3.5,8.22a5.33,5.33,0,0,1-2.44-.67v.06a5.43,5.43,0,0,0,4.33,5.32A5.42,5.42,0,0,1,4,13.11,5,5,0,0,1,3,13,5.46,5.46,0,0,0,8,16.79,10.88,10.88,0,0,1,1.3,19.1,9.26,9.26,0,0,1,0,19a15.21,15.21,0,0,0,8.3,2.43A15.3,15.3,0,0,0,23.71,6.05c0-.24,0-.47,0-.7A10.66,10.66,0,0,0,26.4,2.54Z"/></g></g></svg>