<svg xmlns="http://www.w3.org/2000/svg" viewBox="0 0 35.62 25.74"><defs><style>.cls-1{fill:#e7e3de;}</style></defs><title>Fichier 42</title><g id="Calque_2" data-name="Calque 2"><g id="footer"><path class="cls-1" d="M17.81,25.74h0c-1.07,0-10.58-.09-13.27-.82A5.5,5.5,0,0,1,.66,21.05,40.5,40.5,0,0,1,0,12.91,41.71,41.71,0,0,1,.65,4.7h0A5.6,5.6,0,0,1,4.53.8h0C7.2.09,16.72,0,17.8,0h0C18.9,0,28.43.09,31.09.82A5.52,5.52,0,0,1,35,4.69a39.16,39.16,0,0,1,.66,8.25A40.92,40.92,0,0,1,35,21.07h0A5.5,5.5,0,0,1,31.09,25h0c-2.66.7-12.18.78-13.26.79ZM3.34,5.41a39.56,39.56,0,0,0-.55,7.48v0a36.84,36.84,0,0,0,.56,7.41,2.7,2.7,0,0,0,1.91,1.9c2,.54,9.72.71,12.55.73s10.59-.18,12.56-.7a2.75,2.75,0,0,0,1.91-1.9A38.59,38.59,0,0,0,32.84,13v0a36.92,36.92,0,0,0-.56-7.49h0a2.72,2.72,0,0,0-1.92-1.91c-2-.54-9.71-.71-12.55-.73S7.23,3,5.25,3.48A2.81,2.81,0,0,0,3.34,5.41Zm30.28,15.3Zm-19.36-2.2V7.24L24,12.87Z"/></g></g></svg>